<?xml version="1.0" standalone="no"?>
<!DOCTYPE svg PUBLIC "-//W3C//DTD SVG 20010904//EN"
 "http://www.w3.org/TR/2001/REC-SVG-20010904/DTD/svg10.dtd">
<svg version="1.0" xmlns="http://www.w3.org/2000/svg"
 width="1920.000000pt" height="400.000000pt" viewBox="0 0 1920.000000 400.000000"
 preserveAspectRatio="xMidYMid meet">

<g transform="translate(0.000000,400.000000) scale(0.100000,-0.100000)"
fill="#000000" stroke="none">
<path d="M0 2000 l0 -2000 9600 0 9600 0 0 2000 0 2000 -303 0 -303 0 -10 -27
c-8 -22 -63 -61 -235 -167 -123 -77 -243 -152 -267 -168 -24 -15 -56 -35 -72
-43 l-29 -15 -27 47 c-38 68 -84 136 -103 151 -14 11 -11 23 34 109 28 53 52
100 53 104 2 5 -77 9 -177 9 l-180 0 40 -44 c46 -50 49 -60 17 -62 -13 -1 -71
-5 -131 -8 -106 -7 -143 -2 -116 15 11 7 9 9 -6 9 -12 0 -41 20 -65 45 l-44
45 -8638 0 -8638 0 0 -2000z m4930 1975 c14 -2 66 -6 117 -10 51 -4 96 -12
101 -19 5 -6 23 -54 40 -106 16 -52 71 -214 121 -360 50 -146 91 -271 91 -278
0 -10 -15 -12 -62 -8 -82 7 -196 14 -393 22 -88 4 -171 8 -185 9 -21 2 -27 12
-47 76 -12 40 -27 83 -32 94 -6 11 -24 70 -42 130 -17 61 -36 118 -41 129 -7
13 -6 21 3 27 11 7 10 9 -5 9 -13 0 -17 5 -13 20 3 13 1 18 -6 13 -6 -4 -8 2
-5 15 4 12 2 20 -3 16 -5 -3 -9 0 -9 5 0 6 12 12 28 12 l27 1 -29 7 c-22 4
-32 15 -42 43 l-13 37 51 38 c27 21 54 37 60 35 5 -1 7 2 4 7 -3 5 6 19 21 30
26 20 36 21 133 15 58 -3 116 -7 130 -9z m9235 -683 l246 -129 -49 -59 c-26
-33 -128 -158 -227 -279 -98 -121 -184 -226 -190 -233 -9 -10 -62 15 -261 126
-137 76 -249 144 -249 149 0 21 459 564 472 559 7 -3 123 -63 258 -134z m-649
-1853 c21 -7 34 -7 51 2 31 17 39 5 19 -26 -18 -27 -45 -32 -78 -14 -14 8 -23
8 -31 0 -6 -6 -19 -11 -29 -11 -16 0 -17 3 -7 23 20 38 33 43 75 26z m-7776
-73 c0 -2 22 -68 50 -145 l49 -141 -34 0 c-30 0 -35 4 -43 33 -8 30 -11 32
-59 35 -51 3 -51 3 -63 -33 -10 -31 -15 -35 -46 -35 l-33 0 28 78 c15 42 38
107 50 145 l23 67 39 0 c21 0 39 -2 39 -4z m393 -34 c27 -27 32 -40 35 -95 7
-107 -36 -157 -133 -157 -60 0 -101 24 -120 72 -31 78 -11 162 47 198 50 32
129 24 171 -18z m391 -49 c15 -49 31 -99 35 -113 7 -21 13 -8 42 85 l35 110
42 3 42 3 0 -145 0 -146 -31 0 -31 0 4 104 c2 58 2 103 1 102 -2 -2 -18 -48
-37 -102 -31 -93 -34 -99 -62 -102 -29 -3 -29 -2 -59 100 l-30 102 -3 -102
c-3 -101 -3 -102 -27 -102 l-25 0 0 145 0 145 39 0 39 0 26 -87z m476 63 c0
-23 -4 -25 -52 -28 -51 -3 -53 -4 -53 -33 0 -29 2 -30 48 -33 42 -3 47 -5 47
-28 0 -22 -4 -24 -50 -24 l-50 0 0 -35 0 -35 55 0 c52 0 55 -1 55 -25 0 -25
-1 -25 -85 -25 l-85 0 0 138 c0 76 3 142 7 145 3 4 42 7 85 7 76 0 78 -1 78
-24z m158 -98 l3 -118 54 0 c52 0 55 -1 55 -25 0 -25 -1 -25 -85 -25 l-85 0 0
146 0 145 28 -3 27 -3 3 -117z m264 65 l3 -58 52 -3 52 -3 3 58 c3 57 3 58 33
58 l30 0 3 -142 3 -143 -36 0 -35 0 0 60 0 60 -55 0 -55 0 0 -60 0 -60 -30 0
-30 0 0 145 0 145 30 0 c28 0 29 -1 32 -57z m489 34 c70 -47 77 -171 14 -234
-30 -30 -39 -33 -92 -33 -65 0 -95 15 -118 60 -19 37 -19 133 -1 169 31 60
135 80 197 38z m271 17 c52 -9 78 -36 78 -84 0 -29 -6 -43 -24 -58 l-25 -19
23 -34 c13 -19 31 -46 41 -61 l17 -28 -34 0 c-30 0 -37 6 -66 55 -18 30 -40
55 -48 55 -10 0 -14 -14 -14 -55 0 -54 0 -55 -30 -55 l-30 0 0 145 0 145 38 0
c20 0 54 -3 74 -6z m527 -10 c5 -5 5 -19 1 -31 -8 -20 -12 -21 -44 -11 -51 16
-82 -1 -96 -50 -12 -48 -4 -95 21 -118 15 -13 30 -16 69 -11 47 6 50 5 50 -17
0 -29 -16 -36 -85 -36 -46 0 -58 4 -83 29 -64 65 -54 195 20 241 26 16 45 20
86 17 29 -2 57 -8 61 -13z m161 -129 l0 -145 -30 0 -30 0 0 145 0 145 30 0 30
0 0 -145z m248 38 l62 -108 0 108 0 107 25 0 25 0 0 -145 0 -145 -37 0 c-37 0
-39 2 -90 93 -29 50 -57 98 -62 106 -5 9 -7 -27 -4 -93 l6 -106 -32 0 -31 0 0
145 0 145 38 0 c37 0 38 -1 100 -107z m392 82 c0 -23 -3 -25 -50 -25 l-50 0 0
-35 c0 -35 0 -35 45 -35 41 0 45 -2 45 -25 0 -23 -4 -25 -45 -25 -45 0 -45 0
-45 -35 l0 -35 50 0 c47 0 50 -2 50 -25 0 -25 -1 -25 -80 -25 l-80 0 0 145 0
145 80 0 c79 0 80 0 80 -25z m212 -70 c15 -49 31 -97 34 -105 4 -9 21 28 43
90 l36 105 40 0 40 0 3 -142 3 -143 -31 0 -30 0 -1 103 -1 102 -35 -102 c-33
-99 -36 -103 -63 -103 -28 0 -30 4 -63 108 l-34 107 5 -107 5 -108 -32 0 -31
0 0 146 0 145 42 -3 42 -3 28 -90z m490 -40 c26 -71 47 -136 48 -142 0 -8 -12
-13 -29 -13 -25 0 -31 6 -41 35 -12 36 -12 36 -63 33 -48 -3 -52 -5 -61 -35
-8 -29 -13 -33 -44 -33 -28 0 -33 3 -27 18 4 9 24 67 45 127 21 61 42 118 46
128 5 14 15 17 43 15 l36 -3 47 -130z m447 110 c40 -20 61 -62 61 -122 0 -95
-56 -143 -170 -143 l-60 0 0 146 0 147 69 -6 c38 -3 83 -13 100 -22z m352
-115 c27 -74 49 -139 49 -143 0 -5 -14 -7 -32 -5 -27 2 -34 9 -42 36 -9 31
-11 32 -61 32 -50 0 -52 -1 -61 -32 -8 -27 -15 -34 -42 -36 -18 -2 -32 -1 -32
2 0 4 71 209 91 264 8 19 15 23 46 20 l36 -3 48 -135z m431 122 c7 -7 6 -16
-1 -31 -10 -17 -15 -19 -38 -10 -37 14 -73 4 -73 -21 0 -14 16 -28 50 -45 54
-27 70 -48 70 -94 0 -48 -40 -73 -114 -69 -61 3 -61 3 -64 35 -3 32 -3 32 27
22 74 -26 123 15 60 49 -52 27 -89 67 -89 97 0 35 16 64 43 75 27 12 114 7
129 -8z m160 -92 c3 -119 8 -130 59 -130 15 0 31 6 37 13 6 7 13 60 14 118 l3
104 30 0 30 0 3 -98 c4 -148 -22 -187 -128 -187 -37 0 -56 6 -77 24 -27 24
-28 27 -31 145 l-4 121 30 0 30 0 4 -110z m470 -25 c26 -71 47 -136 48 -142 0
-8 -12 -13 -29 -13 -25 0 -31 6 -41 35 -12 36 -12 36 -63 33 -48 -3 -52 -5
-61 -35 -8 -29 -13 -33 -44 -33 -28 0 -33 3 -27 18 4 9 24 67 45 127 21 61 42
118 46 128 5 14 15 17 43 15 l36 -3 47 -130z m390 129 c52 -9 78 -36 78 -84 0
-29 -6 -43 -24 -58 l-25 -19 23 -34 c13 -19 31 -46 41 -61 l17 -28 -34 0 c-30
0 -37 6 -66 55 -18 30 -40 55 -48 55 -10 0 -14 -14 -14 -55 0 -54 0 -55 -30
-55 l-30 0 0 145 0 145 38 0 c20 0 54 -3 74 -6z m348 -19 c0 -23 -3 -25 -50
-25 l-50 0 0 -35 0 -35 51 0 c47 0 50 -2 47 -22 -3 -20 -10 -23 -50 -26 -47
-3 -48 -4 -48 -38 l0 -34 50 0 c47 0 50 -2 50 -25 0 -25 -1 -25 -80 -25 l-80
0 0 145 0 145 80 0 c79 0 80 0 80 -25z m316 12 c3 -3 3 -15 -1 -27 -6 -19 -12
-20 -50 -15 -54 9 -82 -6 -101 -52 -29 -69 3 -133 68 -133 36 0 38 2 38 30 0
27 -3 30 -30 30 -25 0 -30 4 -30 25 0 24 3 25 60 25 l60 0 0 -70 c0 -82 -8
-90 -94 -90 -96 0 -132 31 -143 121 -13 107 54 174 164 166 29 -2 56 -6 59
-10z m174 -132 l0 -145 -30 0 -30 0 0 138 c0 76 3 142 7 145 3 4 17 7 30 7
l23 0 0 -145z m301 5 c27 -74 49 -139 49 -143 0 -5 -14 -7 -32 -5 -27 2 -34 9
-42 36 -9 31 -11 32 -61 32 -50 0 -52 -1 -61 -32 -8 -27 -15 -34 -42 -36 -18
-2 -32 -1 -32 2 0 4 71 209 91 264 8 19 15 23 46 20 l36 -3 48 -135z m327 120
c82 -50 82 -213 1 -255 -15 -8 -50 -15 -76 -15 -95 0 -140 57 -131 166 5 56
31 97 73 114 37 16 99 11 133 -10z m4386 -282 c47 -15 108 -71 124 -116 16
-45 0 -40 -19 7 -9 21 -33 51 -54 67 -53 40 -151 46 -216 14 -89 -45 -129
-100 -129 -177 1 -116 88 -203 202 -203 93 1 153 50 227 184 76 138 170 216
264 216 108 0 187 -95 187 -224 0 -63 -20 -106 -69 -148 -36 -30 -41 -40 -41
-76 0 -30 5 -42 18 -46 33 -11 113 11 157 43 29 21 55 31 79 31 l36 0 0 -175
0 -175 -42 0 c-35 0 -46 6 -77 39 -41 44 -71 62 -121 72 l-35 7 33 1 c42 1 65
-11 124 -65 34 -32 56 -44 78 -44 l30 0 0 165 0 165 -29 0 c-17 0 -42 -11 -59
-25 -38 -32 -103 -55 -153 -55 l-39 0 0 -100 c0 -149 22 -140 -331 -140 -362
0 -333 -16 -337 180 -3 94 0 146 7 153 8 8 11 -30 11 -140 0 -146 1 -153 22
-167 19 -14 65 -16 300 -16 265 0 279 1 298 20 18 18 20 33 20 169 l0 149 -36
-10 c-62 -17 -179 15 -231 64 -39 37 -25 41 17 5 98 -83 275 -76 330 15 77
127 -10 318 -146 318 -84 0 -190 -90 -258 -220 -70 -132 -132 -179 -235 -180
-101 0 -177 58 -208 159 -32 106 35 210 166 257 46 17 83 17 135 2z m273 -625
c-2 -16 -4 -3 -4 27 0 30 2 43 4 28 2 -16 2 -40 0 -55z m-247 27 c0 -22 -4
-40 -10 -40 -5 0 -10 18 -10 40 0 22 5 40 10 40 6 0 10 -18 10 -40z m130 1 c0
-22 -4 -43 -10 -46 -6 -4 -10 12 -10 39 0 25 5 46 10 46 6 0 10 -18 10 -39z"/>
<path d="M4640 3888 c0 -5 17 -9 38 -9 20 -1 54 -3 75 -4 20 -1 35 1 31 4 -9
9 -144 17 -144 9z"/>
<path d="M4800 3876 c0 -8 51 -13 56 -5 3 5 -9 9 -25 9 -17 0 -31 -2 -31 -4z"/>
<path d="M4550 3860 c0 -6 10 -10 23 -10 12 0 103 -7 202 -15 211 -17 208 -17
201 -7 -3 5 -87 14 -188 21 -101 6 -195 14 -210 16 -16 3 -28 0 -28 -5z"/>
<path d="M4615 3720 c3 -5 8 -10 11 -10 2 0 4 5 4 10 0 6 -5 10 -11 10 -5 0
-7 -4 -4 -10z"/>
<path d="M4888 3673 c7 -3 16 -2 19 1 4 3 -2 6 -13 5 -11 0 -14 -3 -6 -6z"/>
<path d="M4656 3607 c3 -10 9 -15 12 -12 3 3 0 11 -7 18 -10 9 -11 8 -5 -6z"/>
<path d="M4730 3600 c-13 -8 47 -17 165 -25 44 -4 101 -8 127 -10 28 -2 51 1
54 7 5 7 1 9 -9 5 -10 -3 -17 -2 -17 3 0 5 -8 8 -17 8 -10 0 -56 3 -103 6
-144 12 -189 13 -200 6z"/>
<path d="M4808 3483 c7 -3 16 -2 19 1 4 3 -2 6 -13 5 -11 0 -14 -3 -6 -6z"/>
<path d="M4889 3477 c4 -4 37 -7 72 -5 l64 3 -72 5 c-40 3 -68 1 -64 -3z"/>
<path d="M5049 3467 c5 -5 28 -7 52 -5 l44 3 -52 5 c-29 3 -48 1 -44 -3z"/>
<path d="M5681 1256 c-15 -59 -16 -56 23 -56 l34 0 -16 50 c-9 28 -19 50 -23
50 -4 0 -12 -20 -18 -44z"/>
<path d="M5990 1300 c-15 -15 -20 -33 -20 -73 0 -67 20 -97 64 -97 49 0 71 30
71 97 0 45 -4 58 -24 74 -30 25 -66 24 -91 -1z"/>
<path d="M7785 1295 c-37 -36 -32 -130 9 -157 24 -16 75 -8 90 14 24 34 21
123 -4 148 -27 27 -66 25 -95 -5z"/>
<path d="M8130 1279 c0 -34 3 -39 24 -39 54 0 62 60 8 71 -32 6 -32 6 -32 -32z"/>
<path d="M10109 1255 l-16 -55 34 0 c33 0 35 2 29 26 -4 15 -12 40 -19 56
l-12 29 -16 -56z"/>
<path d="M10550 1224 l0 -97 37 6 c46 8 62 24 70 70 9 55 -12 95 -56 107 -20
5 -39 10 -43 10 -5 0 -8 -43 -8 -96z"/>
<path d="M10911 1269 c-7 -23 -15 -47 -18 -55 -4 -10 4 -14 32 -14 28 0 36 3
32 14 -3 8 -11 33 -17 55 -6 23 -12 41 -14 41 -1 0 -8 -18 -15 -41z"/>
<path d="M11969 1255 l-16 -55 34 0 c33 0 35 2 29 26 -4 15 -12 40 -19 56
l-12 29 -16 -56z"/>
<path d="M12410 1279 c0 -34 3 -39 24 -39 54 0 62 60 8 71 -32 6 -32 6 -32
-32z"/>
<path d="M13501 1269 c-7 -23 -15 -47 -18 -55 -4 -10 4 -14 32 -14 28 0 36 3
32 14 -3 8 -11 33 -17 55 -6 23 -12 41 -14 41 -1 0 -8 -18 -15 -41z"/>
<path d="M13809 1301 c-19 -15 -23 -28 -23 -74 -1 -67 21 -97 69 -97 55 0 84
61 64 134 -15 56 -66 73 -110 37z"/>
</g>
</svg>
