<svg xmlns="http://www.w3.org/2000/svg" xmlns:xlink="http://www.w3.org/1999/xlink" width="40" zoomAndPan="magnify" viewBox="0 0 30 30.000001" height="40" preserveAspectRatio="xMidYMid meet" version="1.0"><defs><clipPath id="b92df1c477"><path d="M 20 15 L 27.335938 15 L 27.335938 23.597656 L 20 23.597656 Z M 20 15 " clip-rule="nonzero"/></clipPath><clipPath id="85caea8890"><path d="M 2.660156 5.449219 L 24 5.449219 L 24 16 L 2.660156 16 Z M 2.660156 5.449219 " clip-rule="nonzero"/></clipPath></defs><path fill="#ffffff" d="M 5.527344 15.332031 L 5.527344 21.359375 C 5.527344 21.75 5.652344 22.09375 5.902344 22.394531 C 6.210938 22.761719 6.609375 22.949219 7.089844 22.960938 C 7.132812 22.960938 7.175781 22.960938 7.21875 22.960938 L 19.074219 22.960938 C 19.417969 22.960938 19.730469 22.863281 20.011719 22.660156 C 20.402344 22.375 20.621094 21.992188 20.667969 21.511719 C 20.675781 21.414062 20.675781 21.316406 20.675781 21.21875 L 20.675781 14.894531 C 20.675781 14.722656 20.40625 14.71875 20.40625 14.894531 L 20.40625 20.722656 C 20.40625 20.960938 20.414062 21.203125 20.40625 21.441406 C 20.378906 21.882812 20.183594 22.230469 19.8125 22.472656 C 19.585938 22.621094 19.339844 22.695312 19.070312 22.691406 L 7.117188 22.691406 C 6.683594 22.691406 6.335938 22.519531 6.070312 22.175781 C 5.882812 21.933594 5.792969 21.65625 5.792969 21.347656 L 5.792969 15.332031 C 5.792969 15.160156 5.523438 15.160156 5.523438 15.332031 Z M 5.527344 15.332031 " fill-opacity="1" fill-rule="nonzero"/><g clip-path="url(#b92df1c477)"><path fill="#ffffff" d="M 20.589844 17.410156 C 21.472656 17.554688 22.34375 17.503906 23.199219 17.253906 C 23.613281 17.140625 24 16.96875 24.359375 16.730469 C 24.5625 16.585938 24.746094 16.414062 24.933594 16.253906 C 25.125 16.085938 25.335938 15.949219 25.5625 15.839844 C 26.074219 15.617188 26.59375 15.578125 27.128906 15.730469 L 27.03125 15.597656 L 27.007812 18.714844 L 26.980469 21.828125 L 26.976562 22.613281 C 26.976562 22.738281 26.976562 22.863281 26.972656 22.988281 C 26.96875 23.0625 26.957031 23.140625 26.886719 23.183594 C 26.796875 23.222656 26.703125 23.25 26.605469 23.257812 C 26.507812 23.273438 26.40625 23.28125 26.300781 23.277344 C 26.097656 23.273438 25.894531 23.238281 25.703125 23.171875 C 24.882812 22.882812 24.515625 22.019531 23.882812 21.492188 C 23.210938 20.941406 22.441406 20.664062 21.574219 20.667969 C 21.46875 20.667969 21.367188 20.675781 21.261719 20.683594 C 21.175781 20.6875 21.128906 20.730469 21.128906 20.820312 C 21.128906 20.90625 21.171875 20.953125 21.261719 20.953125 C 22.128906 20.871094 22.910156 21.089844 23.605469 21.617188 C 24.289062 22.140625 24.65625 23.015625 25.472656 23.371094 C 25.890625 23.554688 26.320312 23.597656 26.769531 23.503906 C 26.875 23.488281 26.96875 23.453125 27.058594 23.394531 C 27.15625 23.324219 27.214844 23.230469 27.230469 23.113281 C 27.242188 22.992188 27.25 22.875 27.246094 22.757812 L 27.246094 22.363281 L 27.273438 19.179688 L 27.296875 15.996094 L 27.300781 15.601562 C 27.296875 15.535156 27.265625 15.492188 27.199219 15.472656 C 26.710938 15.335938 26.222656 15.339844 25.738281 15.492188 C 25.5 15.566406 25.277344 15.671875 25.070312 15.808594 C 24.851562 15.972656 24.640625 16.144531 24.4375 16.328125 C 23.785156 16.882812 22.90625 17.113281 22.070312 17.191406 C 21.597656 17.238281 21.128906 17.222656 20.660156 17.148438 C 20.578125 17.128906 20.523438 17.160156 20.496094 17.246094 C 20.472656 17.332031 20.503906 17.386719 20.589844 17.410156 Z M 20.589844 17.410156 " fill-opacity="1" fill-rule="nonzero"/></g><path fill="#ffffff" d="M 10.050781 18.382812 L 10.050781 20.300781 C 10.050781 20.472656 10.320312 20.472656 10.320312 20.300781 L 10.320312 18.382812 C 10.320312 18.210938 10.050781 18.210938 10.050781 18.382812 Z M 10.050781 18.382812 " fill-opacity="1" fill-rule="nonzero"/><path fill="#ffffff" d="M 15.792969 18.382812 L 15.792969 20.300781 C 15.792969 20.472656 16.0625 20.472656 16.0625 20.300781 L 16.0625 18.382812 C 16.0625 18.210938 15.792969 18.210938 15.792969 18.382812 Z M 15.792969 18.382812 " fill-opacity="1" fill-rule="nonzero"/><path fill="#ffffff" d="M 12.964844 18.382812 L 12.964844 20.300781 C 12.964844 20.472656 13.234375 20.472656 13.234375 20.300781 L 13.234375 18.382812 C 13.234375 18.210938 12.964844 18.210938 12.964844 18.382812 Z M 12.964844 18.382812 " fill-opacity="1" fill-rule="nonzero"/><g clip-path="url(#85caea8890)"><path fill="#ffffff" d="M 12.792969 9.042969 C 12.628906 7.984375 11.992188 7.066406 11.144531 6.433594 C 10.226562 5.75 9.191406 5.445312 8.046875 5.523438 C 6.851562 5.59375 5.695312 6.074219 4.746094 6.800781 C 4.242188 7.175781 3.808594 7.621094 3.445312 8.132812 C 3.066406 8.695312 2.851562 9.316406 2.796875 9.992188 C 2.695312 11.101562 3.011719 12.230469 3.625 13.152344 C 4.238281 14.074219 5.152344 14.796875 6.222656 15.117188 C 7.335938 15.449219 8.4375 15.40625 9.519531 14.984375 C 10.050781 14.78125 10.53125 14.492188 10.957031 14.121094 C 11.390625 13.726562 11.765625 13.28125 12.082031 12.789062 C 12.738281 11.796875 13.203125 10.699219 13.832031 9.695312 C 14.429688 8.734375 15.179688 7.835938 16.109375 7.175781 C 16.566406 6.84375 17.0625 6.585938 17.59375 6.398438 C 17.933594 6.28125 18.285156 6.203125 18.644531 6.167969 C 18.800781 6.15625 18.957031 6.152344 19.113281 6.15625 C 19.1875 6.160156 19.261719 6.164062 19.335938 6.171875 C 19.425781 6.179688 19.457031 6.183594 19.539062 6.199219 C 19.683594 6.222656 19.824219 6.253906 19.964844 6.296875 C 20.03125 6.316406 20.097656 6.339844 20.167969 6.363281 C 20.199219 6.375 20.226562 6.386719 20.257812 6.398438 C 20.308594 6.417969 20.296875 6.414062 20.34375 6.433594 C 20.859375 6.660156 21.300781 6.992188 21.664062 7.421875 C 21.753906 7.527344 21.839844 7.632812 21.921875 7.746094 C 22.003906 7.863281 22.082031 7.984375 22.15625 8.109375 C 22.230469 8.234375 22.296875 8.363281 22.363281 8.496094 C 22.433594 8.640625 22.476562 8.742188 22.53125 8.886719 C 22.636719 9.164062 22.722656 9.445312 22.785156 9.738281 C 22.847656 10.019531 22.886719 10.304688 22.898438 10.597656 C 22.9375 11.179688 22.875 11.753906 22.707031 12.316406 C 22.632812 12.585938 22.523438 12.84375 22.390625 13.089844 C 22.320312 13.21875 22.246094 13.34375 22.164062 13.460938 C 22.144531 13.488281 22.125 13.515625 22.109375 13.542969 L 22.078125 13.585938 C 22.054688 13.613281 22.074219 13.589844 22.050781 13.617188 C 22.007812 13.671875 21.960938 13.730469 21.914062 13.785156 C 21.507812 14.238281 21.019531 14.570312 20.453125 14.78125 C 19.660156 15.082031 18.804688 15.140625 17.964844 15.066406 C 16.910156 14.980469 15.855469 14.644531 14.996094 14.015625 C 14.585938 13.71875 14.238281 13.355469 13.957031 12.933594 C 13.863281 12.789062 13.628906 12.925781 13.726562 13.070312 C 14.324219 13.96875 15.230469 14.605469 16.242188 14.96875 C 17.25 15.328125 18.289062 15.445312 19.351562 15.316406 C 20.035156 15.234375 20.707031 15.035156 21.292969 14.660156 C 21.808594 14.332031 22.222656 13.902344 22.535156 13.378906 C 22.835938 12.867188 23.027344 12.320312 23.113281 11.738281 C 23.203125 11.128906 23.199219 10.523438 23.09375 9.921875 C 22.992188 9.324219 22.804688 8.761719 22.527344 8.226562 C 22.261719 7.703125 21.910156 7.242188 21.472656 6.847656 C 21.035156 6.453125 20.53125 6.175781 19.964844 6.015625 C 19.339844 5.851562 18.710938 5.839844 18.078125 5.984375 C 17.039062 6.207031 16.09375 6.769531 15.3125 7.472656 C 14.445312 8.253906 13.769531 9.210938 13.207031 10.226562 C 12.648438 11.242188 12.160156 12.332031 11.417969 13.246094 C 11.0625 13.695312 10.644531 14.070312 10.160156 14.375 C 9.683594 14.664062 9.171875 14.859375 8.625 14.96875 C 7.550781 15.1875 6.390625 15.035156 5.429688 14.492188 C 4.453125 13.929688 3.765625 13.121094 3.363281 12.070312 C 2.945312 10.984375 2.902344 9.6875 3.449219 8.640625 C 3.742188 8.082031 4.183594 7.613281 4.664062 7.210938 C 5.121094 6.824219 5.621094 6.507812 6.167969 6.265625 C 7.214844 5.796875 8.429688 5.628906 9.542969 5.941406 C 10.535156 6.214844 11.441406 6.855469 12.003906 7.726562 C 12.277344 8.152344 12.457031 8.613281 12.535156 9.113281 C 12.558594 9.199219 12.617188 9.230469 12.703125 9.207031 C 12.789062 9.183594 12.816406 9.125 12.796875 9.042969 Z M 12.792969 9.042969 " fill-opacity="1" fill-rule="nonzero"/></g></svg>