<svg xmlns="http://www.w3.org/2000/svg" xmlns:xlink="http://www.w3.org/1999/xlink" width="500" zoomAndPan="magnify" viewBox="0 0 375 374.999991" height="500" preserveAspectRatio="xMidYMid meet" version="1.0"><defs><g/></defs><path fill="#6959cd" d="M 65.015625 165.355469 L 65.015625 243.308594 C 65.019531 245.753906 65.441406 248.128906 66.273438 250.425781 C 67.109375 252.726562 68.304688 254.816406 69.871094 256.695312 C 70.816406 257.820312 71.871094 258.828125 73.035156 259.726562 C 74.195312 260.625 75.4375 261.390625 76.761719 262.023438 C 78.089844 262.65625 79.464844 263.140625 80.894531 263.480469 C 82.320312 263.820312 83.769531 264.007812 85.238281 264.039062 C 85.796875 264.039062 86.363281 264.039062 86.921875 264.039062 L 240.457031 264.039062 C 242.632812 264.042969 244.757812 263.71875 246.828125 263.054688 C 248.902344 262.390625 250.824219 261.425781 252.589844 260.15625 C 253.785156 259.285156 254.871094 258.300781 255.855469 257.203125 C 256.839844 256.101562 257.699219 254.910156 258.429688 253.628906 C 259.164062 252.347656 259.753906 251.003906 260.203125 249.597656 C 260.652344 248.191406 260.949219 246.753906 261.09375 245.285156 C 261.214844 244.023438 261.1875 242.742188 261.1875 241.472656 L 261.1875 159.671875 C 261.1875 157.425781 257.699219 157.417969 257.699219 159.671875 L 257.699219 235.054688 C 257.699219 238.148438 257.824219 241.265625 257.699219 244.363281 C 257.625 245.699219 257.394531 247.007812 257.015625 248.289062 C 256.632812 249.574219 256.109375 250.792969 255.441406 251.953125 C 254.777344 253.113281 253.988281 254.183594 253.070312 255.15625 C 252.15625 256.132812 251.140625 256.992188 250.027344 257.730469 C 248.589844 258.660156 247.054688 259.367188 245.414062 259.847656 C 243.769531 260.328125 242.09375 260.566406 240.382812 260.554688 L 85.621094 260.554688 C 84.3125 260.550781 83.019531 260.402344 81.742188 260.101562 C 80.46875 259.804688 79.242188 259.367188 78.066406 258.789062 C 76.886719 258.210938 75.792969 257.507812 74.773438 256.683594 C 73.757812 255.855469 72.847656 254.925781 72.042969 253.890625 C 70.871094 252.351562 69.980469 250.660156 69.371094 248.824219 C 68.761719 246.988281 68.464844 245.101562 68.480469 243.164062 L 68.480469 165.355469 C 68.480469 163.109375 64.996094 163.109375 64.996094 165.355469 Z M 65.015625 165.355469 " fill-opacity="1" fill-rule="nonzero"/><path fill="#6959cd" d="M 260.097656 192.222656 C 265.734375 193.140625 271.402344 193.429688 277.105469 193.089844 C 282.808594 192.746094 288.402344 191.78125 293.890625 190.195312 C 299.257812 188.757812 304.253906 186.496094 308.878906 183.410156 C 311.539062 181.554688 313.894531 179.332031 316.355469 177.238281 C 318.820312 175.085938 321.535156 173.3125 324.5 171.925781 C 327.691406 170.511719 331.027344 169.679688 334.511719 169.429688 C 337.992188 169.179688 341.414062 169.527344 344.773438 170.472656 L 343.492188 168.792969 L 343.175781 209.085938 L 342.855469 249.378906 L 342.765625 259.554688 C 342.765625 261.152344 342.765625 262.765625 342.722656 264.371094 C 342.679688 265.351562 342.554688 266.378906 341.632812 266.90625 C 340.476562 267.4375 339.265625 267.761719 338 267.882812 C 336.695312 268.089844 335.382812 268.175781 334.0625 268.144531 C 331.394531 268.097656 328.800781 267.632812 326.28125 266.75 C 315.695312 263.035156 310.914062 251.871094 302.703125 245.054688 C 300.617188 243.332031 298.398438 241.800781 296.046875 240.464844 C 293.695312 239.125 291.242188 238.003906 288.695312 237.089844 C 286.148438 236.179688 283.542969 235.492188 280.875 235.035156 C 278.210938 234.574219 275.523438 234.347656 272.820312 234.355469 C 271.476562 234.355469 270.128906 234.441406 268.792969 234.574219 C 268.566406 234.582031 268.34375 234.628906 268.132812 234.71875 C 267.921875 234.808594 267.738281 234.9375 267.574219 235.097656 C 267.414062 235.261719 267.285156 235.449219 267.195312 235.65625 C 267.105469 235.867188 267.054688 236.089844 267.050781 236.316406 C 267.050781 236.546875 267.097656 236.769531 267.1875 236.984375 C 267.277344 237.195312 267.402344 237.382812 267.566406 237.546875 C 267.726562 237.710938 267.914062 237.835938 268.128906 237.925781 C 268.339844 238.015625 268.5625 238.058594 268.792969 238.0625 C 271.480469 237.800781 274.164062 237.792969 276.851562 238.035156 C 279.539062 238.277344 282.179688 238.765625 284.777344 239.5 C 287.371094 240.238281 289.878906 241.207031 292.292969 242.414062 C 294.707031 243.617188 296.988281 245.035156 299.136719 246.667969 C 307.984375 253.425781 312.730469 264.75 323.300781 269.328125 C 325.945312 270.480469 328.699219 271.207031 331.566406 271.503906 C 334.433594 271.796875 337.277344 271.652344 340.101562 271.066406 C 341.449219 270.859375 342.703125 270.394531 343.855469 269.664062 C 344.460938 269.222656 344.953125 268.683594 345.339844 268.042969 C 345.722656 267.40625 345.96875 266.714844 346.074219 265.976562 C 346.25 264.457031 346.316406 262.929688 346.269531 261.398438 L 346.304688 256.3125 L 346.632812 215.109375 L 346.929688 173.917969 L 346.972656 168.828125 C 346.96875 168.4375 346.84375 168.089844 346.605469 167.777344 C 346.371094 167.46875 346.0625 167.257812 345.6875 167.148438 C 342.582031 166.28125 339.417969 165.867188 336.191406 165.910156 C 332.964844 165.953125 329.8125 166.453125 326.730469 167.40625 C 323.652344 168.347656 320.777344 169.71875 318.105469 171.519531 C 315.257812 173.609375 312.53125 175.847656 309.917969 178.226562 C 301.46875 185.378906 290.097656 188.402344 279.265625 189.382812 C 273.15625 189.992188 267.074219 189.816406 261.011719 188.851562 C 260.789062 188.796875 260.566406 188.789062 260.335938 188.820312 C 260.109375 188.851562 259.898438 188.925781 259.699219 189.039062 C 259.5 189.152344 259.328125 189.296875 259.183594 189.476562 C 259.042969 189.65625 258.9375 189.855469 258.867188 190.074219 C 258.808594 190.296875 258.792969 190.523438 258.824219 190.75 C 258.855469 190.980469 258.925781 191.195312 259.039062 191.394531 C 259.152344 191.59375 259.300781 191.765625 259.484375 191.910156 C 259.664062 192.050781 259.867188 192.152344 260.089844 192.21875 Z M 260.097656 192.222656 " fill-opacity="1" fill-rule="nonzero"/><path fill="#6959cd" d="M 123.59375 204.8125 L 123.59375 229.609375 C 123.59375 231.855469 127.082031 231.855469 127.082031 229.609375 L 127.082031 204.8125 C 127.082031 202.566406 123.59375 202.558594 123.59375 204.8125 Z M 123.59375 204.8125 " fill-opacity="1" fill-rule="nonzero"/><path fill="#6959cd" d="M 197.980469 204.8125 L 197.980469 229.609375 C 197.980469 231.855469 201.46875 231.855469 201.46875 229.609375 L 201.46875 204.8125 C 201.46875 202.566406 197.980469 202.558594 197.980469 204.8125 Z M 197.980469 204.8125 " fill-opacity="1" fill-rule="nonzero"/><path fill="#6959cd" d="M 161.347656 204.8125 L 161.347656 229.609375 C 161.347656 231.855469 164.835938 231.855469 164.835938 229.609375 L 164.835938 204.8125 C 164.835938 202.566406 161.347656 202.558594 161.347656 204.8125 Z M 161.347656 204.8125 " fill-opacity="1" fill-rule="nonzero"/><path fill="#6959cd" d="M 159.136719 83.957031 C 157.007812 70.277344 148.71875 58.402344 137.789062 50.21875 C 134.925781 48.09375 131.894531 46.238281 128.699219 44.648438 C 125.507812 43.058594 122.199219 41.761719 118.777344 40.753906 C 115.355469 39.746094 111.871094 39.046875 108.328125 38.65625 C 104.78125 38.261719 101.226562 38.183594 97.667969 38.414062 C 82.171875 39.367188 67.195312 45.566406 54.910156 54.949219 C 48.371094 59.800781 42.746094 65.550781 38.039062 72.195312 C 35.640625 75.785156 33.730469 79.617188 32.3125 83.695312 C 30.890625 87.773438 30.007812 91.964844 29.660156 96.265625 C 28.324219 110.59375 32.445312 125.230469 40.390625 137.140625 C 48.339844 149.054688 60.171875 158.386719 74.019531 162.578125 C 77.503906 163.617188 81.050781 164.359375 84.660156 164.808594 C 88.265625 165.261719 91.886719 165.414062 95.519531 165.265625 C 99.152344 165.117188 102.75 164.675781 106.308594 163.933594 C 109.871094 163.191406 113.34375 162.164062 116.734375 160.847656 C 123.597656 158.207031 129.804688 154.472656 135.347656 149.640625 C 140.972656 144.550781 145.832031 138.8125 149.925781 132.425781 C 158.390625 119.617188 164.414062 105.410156 172.550781 92.410156 C 180.324219 79.964844 190.03125 68.375 202.050781 59.820312 C 207.976562 55.535156 214.394531 52.1875 221.296875 49.773438 C 225.703125 48.242188 230.226562 47.246094 234.871094 46.789062 C 236.890625 46.605469 238.914062 46.550781 240.945312 46.621094 C 241.925781 46.65625 242.90625 46.714844 243.851562 46.808594 C 245.027344 46.925781 245.417969 46.976562 246.488281 47.160156 C 248.34375 47.464844 250.171875 47.886719 251.972656 48.421875 C 252.851562 48.683594 253.730469 48.976562 254.597656 49.296875 C 255.003906 49.441406 255.402344 49.59375 255.800781 49.753906 C 256.421875 50 256.273438 49.933594 256.871094 50.203125 C 260.171875 51.667969 263.269531 53.476562 266.160156 55.640625 C 269.050781 57.800781 271.667969 60.257812 274.003906 63.011719 C 275.179688 64.347656 276.285156 65.746094 277.316406 67.195312 C 278.40625 68.71875 279.425781 70.285156 280.375 71.898438 C 281.324219 73.511719 282.214844 75.175781 283.042969 76.882812 C 283.949219 78.757812 284.496094 80.097656 285.222656 81.929688 C 286.597656 85.515625 287.691406 89.1875 288.5 92.945312 C 289.308594 96.609375 289.808594 100.3125 289.996094 104.058594 C 290.5 111.625 289.675781 119.046875 287.523438 126.320312 C 286.515625 129.808594 285.144531 133.148438 283.40625 136.335938 C 282.511719 137.988281 281.53125 139.585938 280.460938 141.132812 C 280.214844 141.496094 279.972656 141.851562 279.734375 142.199219 L 279.351562 142.722656 C 279.066406 143.101562 279.308594 142.789062 279.015625 143.152344 C 278.441406 143.878906 277.847656 144.605469 277.230469 145.332031 C 274.644531 148.21875 271.75 150.75 268.542969 152.929688 C 265.339844 155.109375 261.921875 156.875 258.289062 158.21875 C 248.042969 162.078125 236.96875 162.832031 226.105469 161.917969 C 212.445312 160.761719 198.792969 156.421875 187.648438 148.296875 C 182.332031 144.4375 177.851562 139.777344 174.199219 134.3125 C 172.964844 132.445312 169.941406 134.199219 171.183594 136.074219 C 178.9375 147.703125 190.695312 155.914062 203.757812 160.632812 C 210.207031 162.925781 216.835938 164.457031 223.640625 165.21875 C 230.445312 165.984375 237.246094 165.960938 244.046875 165.152344 C 252.910156 164.089844 261.621094 161.472656 269.195312 156.664062 C 272.484375 154.558594 275.492188 152.101562 278.210938 149.296875 C 280.933594 146.488281 283.292969 143.40625 285.292969 140.046875 C 289.171875 133.460938 291.664062 126.382812 292.769531 118.820312 C 293.941406 110.972656 293.855469 103.140625 292.507812 95.324219 C 291.203125 87.632812 288.757812 80.328125 285.171875 73.402344 C 281.714844 66.613281 277.160156 60.664062 271.503906 55.558594 C 268.703125 53.042969 265.65625 50.875 262.355469 49.054688 C 259.058594 47.234375 255.597656 45.8125 251.972656 44.789062 C 247.980469 43.746094 243.921875 43.195312 239.796875 43.128906 C 235.671875 43.0625 231.597656 43.484375 227.574219 44.398438 C 214.117188 47.304688 201.882812 54.570312 191.726562 63.671875 C 180.527344 73.738281 171.765625 86.136719 164.5 99.285156 C 157.234375 112.429688 150.921875 126.539062 141.308594 138.332031 C 136.710938 144.140625 131.273438 149.015625 124.996094 152.949219 C 118.832031 156.667969 112.21875 159.234375 105.160156 160.636719 C 91.21875 163.449219 76.207031 161.503906 63.746094 154.484375 C 60.707031 152.726562 57.835938 150.722656 55.140625 148.476562 C 52.441406 146.230469 49.953125 143.769531 47.675781 141.097656 C 45.398438 138.425781 43.363281 135.582031 41.570312 132.5625 C 39.777344 129.542969 38.253906 126.394531 37 123.113281 C 31.59375 109.085938 31.027344 92.328125 38.132812 78.765625 C 41.917969 71.550781 47.628906 65.464844 53.820312 60.25 C 59.742188 55.257812 66.242188 51.1875 73.3125 48.03125 C 86.878906 41.96875 102.589844 39.789062 117.039062 43.824219 C 129.894531 47.40625 141.632812 55.691406 148.886719 66.957031 C 152.453125 72.441406 154.75 78.414062 155.773438 84.878906 C 155.835938 85.105469 155.941406 85.308594 156.085938 85.492188 C 156.230469 85.675781 156.40625 85.828125 156.609375 85.941406 C 156.816406 86.054688 157.035156 86.125 157.265625 86.152344 C 157.5 86.183594 157.726562 86.164062 157.953125 86.101562 C 158.171875 86.03125 158.371094 85.929688 158.550781 85.785156 C 158.730469 85.640625 158.875 85.46875 158.988281 85.269531 C 159.101562 85.070312 159.171875 84.855469 159.203125 84.628906 C 159.234375 84.402344 159.222656 84.179688 159.167969 83.957031 Z M 159.136719 83.957031 " fill-opacity="1" fill-rule="nonzero"/><g fill="#ffffff" fill-opacity="1"><g transform="translate(-0.31128, 364.852301)"><g><path d="M 16.15625 0.328125 C 13.3125 0.328125 10.863281 -0.175781 8.8125 -1.1875 C 6.769531 -2.195312 5.203125 -3.609375 4.109375 -5.421875 C 3.015625 -7.242188 2.46875 -9.359375 2.46875 -11.765625 C 2.46875 -14.972656 3.191406 -17.890625 4.640625 -20.515625 C 6.085938 -23.140625 8.144531 -25.21875 10.8125 -26.75 C 13.476562 -28.28125 16.5625 -29.046875 20.0625 -29.046875 C 22.4375 -29.046875 24.539062 -28.65625 26.375 -27.875 C 28.207031 -27.09375 29.613281 -25.988281 30.59375 -24.5625 L 27.640625 -22.03125 C 25.921875 -24.269531 23.296875 -25.390625 19.765625 -25.390625 C 17.117188 -25.390625 14.796875 -24.785156 12.796875 -23.578125 C 10.796875 -22.378906 9.253906 -20.757812 8.171875 -18.71875 C 7.097656 -16.6875 6.5625 -14.453125 6.5625 -12.015625 C 6.5625 -9.367188 7.414062 -7.257812 9.125 -5.6875 C 10.832031 -4.113281 13.273438 -3.328125 16.453125 -3.328125 C 19.972656 -3.328125 22.867188 -4.460938 25.140625 -6.734375 L 27.515625 -4.015625 C 26.203125 -2.597656 24.566406 -1.519531 22.609375 -0.78125 C 20.660156 -0.0390625 18.507812 0.328125 16.15625 0.328125 Z M 16.15625 0.328125 "/></g></g></g><g fill="#ffffff" fill-opacity="1"><g transform="translate(51.905732, 364.852301)"><g><path d="M 7.875 -28.71875 L 11.984375 -28.71875 L 6.234375 0 L 2.140625 0 Z M 7.875 -28.71875 "/></g></g></g><g fill="#ffffff" fill-opacity="1"><g transform="translate(87.183293, 364.852301)"><g><path d="M 32.5625 -28.71875 L 26.828125 0 L 23.46875 0 L 10.625 -22.109375 L 6.234375 0 L 2.140625 0 L 7.875 -28.71875 L 11.234375 -28.71875 L 24.078125 -6.609375 L 28.46875 -28.71875 Z M 32.5625 -28.71875 "/></g></g></g><g fill="#ffffff" fill-opacity="1"><g transform="translate(143.050702, 364.852301)"><g><path d="M 11.234375 -25.140625 L 9.46875 -16.328125 L 23.90625 -16.328125 L 23.21875 -12.84375 L 8.78125 -12.84375 L 6.9375 -3.5625 L 23.703125 -3.5625 L 23.015625 0 L 2.140625 0 L 7.875 -28.71875 L 28.140625 -28.71875 L 27.4375 -25.140625 Z M 11.234375 -25.140625 "/></g></g></g><g fill="#ffffff" fill-opacity="1"><g transform="translate(193.093881, 364.852301)"><g><path d="M 12.84375 -25.140625 L 3.03125 -25.140625 L 3.734375 -28.71875 L 27.484375 -28.71875 L 26.75 -25.140625 L 16.9375 -25.140625 L 11.890625 0 L 7.828125 0 Z M 12.84375 -25.140625 "/></g></g></g><g fill="#ffffff" fill-opacity="1"><g transform="translate(239.732763, 364.852301)"><g><path d="M 11.234375 -25.140625 L 9.46875 -16.328125 L 23.90625 -16.328125 L 23.21875 -12.84375 L 8.78125 -12.84375 L 6.9375 -3.5625 L 23.703125 -3.5625 L 23.015625 0 L 2.140625 0 L 7.875 -28.71875 L 28.140625 -28.71875 L 27.4375 -25.140625 Z M 11.234375 -25.140625 "/></g></g></g><g fill="#ffffff" fill-opacity="1"><g transform="translate(289.775942, 364.852301)"><g><path d="M 16.15625 0.328125 C 13.3125 0.328125 10.863281 -0.175781 8.8125 -1.1875 C 6.769531 -2.195312 5.203125 -3.609375 4.109375 -5.421875 C 3.015625 -7.242188 2.46875 -9.359375 2.46875 -11.765625 C 2.46875 -14.972656 3.191406 -17.890625 4.640625 -20.515625 C 6.085938 -23.140625 8.144531 -25.21875 10.8125 -26.75 C 13.476562 -28.28125 16.5625 -29.046875 20.0625 -29.046875 C 22.4375 -29.046875 24.539062 -28.65625 26.375 -27.875 C 28.207031 -27.09375 29.613281 -25.988281 30.59375 -24.5625 L 27.640625 -22.03125 C 25.921875 -24.269531 23.296875 -25.390625 19.765625 -25.390625 C 17.117188 -25.390625 14.796875 -24.785156 12.796875 -23.578125 C 10.796875 -22.378906 9.253906 -20.757812 8.171875 -18.71875 C 7.097656 -16.6875 6.5625 -14.453125 6.5625 -12.015625 C 6.5625 -9.367188 7.414062 -7.257812 9.125 -5.6875 C 10.832031 -4.113281 13.273438 -3.328125 16.453125 -3.328125 C 19.972656 -3.328125 22.867188 -4.460938 25.140625 -6.734375 L 27.515625 -4.015625 C 26.203125 -2.597656 24.566406 -1.519531 22.609375 -0.78125 C 20.660156 -0.0390625 18.507812 0.328125 16.15625 0.328125 Z M 16.15625 0.328125 "/></g></g></g><g fill="#ffffff" fill-opacity="1"><g transform="translate(341.99295, 364.852301)"><g><path d="M 32.5625 -28.71875 L 26.828125 0 L 22.71875 0 L 25.265625 -12.71875 L 8.78125 -12.71875 L 6.234375 0 L 2.140625 0 L 7.875 -28.71875 L 11.984375 -28.71875 L 9.515625 -16.40625 L 26 -16.40625 L 28.46875 -28.71875 Z M 32.5625 -28.71875 "/></g></g></g></svg>