<svg xmlns="http://www.w3.org/2000/svg" xmlns:xlink="http://www.w3.org/1999/xlink" width="500" zoomAndPan="magnify" viewBox="0 0 375 374.999991" height="500" preserveAspectRatio="xMidYMid meet" version="1.0"><defs><g/><clipPath id="c4f49daeed"><path d="M 258 154 L 347 154 L 347 260.816406 L 258 260.816406 Z M 258 154 " clip-rule="nonzero"/></clipPath><clipPath id="2dde81c6b6"><path d="M 29 26.066406 L 294 26.066406 L 294 155 L 29 155 Z M 29 26.066406 " clip-rule="nonzero"/></clipPath></defs><path fill="#6959cd" d="M 65.015625 153.921875 L 65.015625 231.875 C 65.019531 234.320312 65.441406 236.691406 66.273438 238.992188 C 67.109375 241.292969 68.304688 243.382812 69.871094 245.261719 C 70.816406 246.382812 71.871094 247.394531 73.035156 248.289062 C 74.195312 249.1875 75.4375 249.953125 76.761719 250.585938 C 78.089844 251.21875 79.464844 251.707031 80.894531 252.046875 C 82.320312 252.386719 83.769531 252.570312 85.238281 252.601562 C 85.796875 252.601562 86.363281 252.601562 86.921875 252.601562 L 240.457031 252.601562 C 242.632812 252.609375 244.757812 252.28125 246.828125 251.617188 C 248.902344 250.957031 250.824219 249.988281 252.589844 248.722656 C 253.785156 247.851562 254.871094 246.867188 255.855469 245.765625 C 256.839844 244.667969 257.699219 243.476562 258.429688 242.195312 C 259.164062 240.914062 259.753906 239.570312 260.203125 238.164062 C 260.652344 236.757812 260.949219 235.320312 261.09375 233.851562 C 261.214844 232.585938 261.1875 231.308594 261.1875 230.035156 L 261.1875 148.238281 C 261.1875 145.992188 257.699219 145.984375 257.699219 148.238281 L 257.699219 223.617188 C 257.699219 226.714844 257.824219 229.832031 257.699219 232.929688 C 257.625 234.265625 257.394531 235.574219 257.015625 236.855469 C 256.632812 238.136719 256.109375 239.359375 255.441406 240.519531 C 254.777344 241.679688 253.988281 242.746094 253.070312 243.722656 C 252.15625 244.699219 251.140625 245.554688 250.027344 246.292969 C 248.589844 247.226562 247.054688 247.933594 245.414062 248.414062 C 243.769531 248.894531 242.09375 249.128906 240.382812 249.121094 L 85.621094 249.121094 C 84.3125 249.117188 83.019531 248.964844 81.742188 248.667969 C 80.46875 248.367188 79.242188 247.929688 78.066406 247.351562 C 76.886719 246.777344 75.792969 246.074219 74.773438 245.246094 C 73.757812 244.421875 72.847656 243.492188 72.042969 242.457031 C 70.871094 240.914062 69.980469 239.226562 69.371094 237.386719 C 68.761719 235.550781 68.464844 233.664062 68.480469 231.730469 L 68.480469 153.921875 C 68.480469 151.675781 64.996094 151.675781 64.996094 153.921875 Z M 65.015625 153.921875 " fill-opacity="1" fill-rule="nonzero"/><g clip-path="url(#c4f49daeed)"><path fill="#6959cd" d="M 260.097656 180.789062 C 265.734375 181.707031 271.402344 181.996094 277.105469 181.652344 C 282.808594 181.3125 288.402344 180.347656 293.890625 178.761719 C 299.257812 177.320312 304.253906 175.058594 308.878906 171.972656 C 311.539062 170.121094 313.894531 167.894531 316.355469 165.804688 C 318.820312 163.648438 321.535156 161.878906 324.5 160.488281 C 327.691406 159.074219 331.027344 158.242188 334.511719 157.996094 C 337.992188 157.746094 341.414062 158.09375 344.773438 159.035156 L 343.492188 157.359375 L 343.175781 197.648438 L 342.855469 237.941406 L 342.765625 248.117188 C 342.765625 249.71875 342.765625 251.332031 342.722656 252.9375 C 342.679688 253.917969 342.554688 254.941406 341.632812 255.472656 C 340.476562 256.003906 339.265625 256.328125 338 256.445312 C 336.695312 256.652344 335.382812 256.742188 334.0625 256.707031 C 331.394531 256.664062 328.800781 256.199219 326.28125 255.3125 C 315.695312 251.597656 310.914062 240.4375 302.703125 233.617188 C 300.617188 231.894531 298.398438 230.367188 296.046875 229.027344 C 293.695312 227.691406 291.242188 226.566406 288.695312 225.65625 C 286.148438 224.742188 283.542969 224.058594 280.875 223.597656 C 278.210938 223.140625 275.523438 222.914062 272.820312 222.921875 C 271.476562 222.921875 270.128906 223.007812 268.792969 223.136719 C 268.566406 223.144531 268.34375 223.195312 268.132812 223.285156 C 267.921875 223.375 267.738281 223.5 267.574219 223.664062 C 267.414062 223.824219 267.285156 224.011719 267.195312 224.222656 C 267.105469 224.433594 267.054688 224.652344 267.050781 224.882812 C 267.050781 225.113281 267.097656 225.335938 267.1875 225.546875 C 267.277344 225.761719 267.402344 225.949219 267.566406 226.113281 C 267.726562 226.273438 267.914062 226.402344 268.128906 226.492188 C 268.339844 226.578125 268.5625 226.625 268.792969 226.628906 C 271.480469 226.367188 274.164062 226.355469 276.851562 226.597656 C 279.539062 226.839844 282.179688 227.328125 284.777344 228.066406 C 287.371094 228.800781 289.878906 229.773438 292.292969 230.976562 C 294.707031 232.183594 296.988281 233.601562 299.136719 235.230469 C 307.984375 241.992188 312.730469 253.3125 323.300781 257.894531 C 325.945312 259.046875 328.699219 259.769531 331.566406 260.066406 C 334.433594 260.363281 337.277344 260.21875 340.101562 259.628906 C 341.449219 259.425781 342.703125 258.957031 343.855469 258.226562 C 344.460938 257.789062 344.953125 257.25 345.339844 256.609375 C 345.722656 255.96875 345.96875 255.28125 346.074219 254.542969 C 346.25 253.019531 346.316406 251.496094 346.269531 249.964844 L 346.304688 244.875 L 346.632812 203.675781 L 346.929688 162.480469 L 346.972656 157.394531 C 346.96875 157.003906 346.84375 156.652344 346.605469 156.34375 C 346.371094 156.03125 346.0625 155.824219 345.6875 155.714844 C 342.582031 154.84375 339.417969 154.429688 336.191406 154.472656 C 332.964844 154.519531 329.8125 155.015625 326.730469 155.96875 C 323.652344 156.914062 320.777344 158.285156 318.105469 160.082031 C 315.257812 162.175781 312.53125 164.410156 309.917969 166.792969 C 301.46875 173.941406 290.097656 176.964844 279.265625 177.949219 C 273.15625 178.558594 267.074219 178.382812 261.011719 177.417969 C 260.789062 177.363281 260.566406 177.351562 260.335938 177.382812 C 260.109375 177.417969 259.898438 177.488281 259.699219 177.601562 C 259.5 177.714844 259.328125 177.863281 259.183594 178.042969 C 259.042969 178.21875 258.9375 178.417969 258.867188 178.636719 C 258.808594 178.859375 258.792969 179.085938 258.824219 179.316406 C 258.855469 179.542969 258.925781 179.757812 259.039062 179.960938 C 259.152344 180.160156 259.300781 180.332031 259.484375 180.472656 C 259.664062 180.617188 259.867188 180.71875 260.089844 180.78125 Z M 260.097656 180.789062 " fill-opacity="1" fill-rule="nonzero"/></g><path fill="#6959cd" d="M 123.59375 193.375 L 123.59375 218.175781 C 123.59375 220.421875 127.082031 220.421875 127.082031 218.175781 L 127.082031 193.375 C 127.082031 191.132812 123.59375 191.125 123.59375 193.375 Z M 123.59375 193.375 " fill-opacity="1" fill-rule="nonzero"/><path fill="#6959cd" d="M 197.980469 193.375 L 197.980469 218.175781 C 197.980469 220.421875 201.46875 220.421875 201.46875 218.175781 L 201.46875 193.375 C 201.46875 191.132812 197.980469 191.125 197.980469 193.375 Z M 197.980469 193.375 " fill-opacity="1" fill-rule="nonzero"/><path fill="#6959cd" d="M 161.347656 193.375 L 161.347656 218.175781 C 161.347656 220.421875 164.835938 220.421875 164.835938 218.175781 L 164.835938 193.375 C 164.835938 191.132812 161.347656 191.125 161.347656 193.375 Z M 161.347656 193.375 " fill-opacity="1" fill-rule="nonzero"/><g clip-path="url(#2dde81c6b6)"><path fill="#6959cd" d="M 159.136719 72.519531 C 157.007812 58.84375 148.71875 46.96875 137.789062 38.785156 C 134.925781 36.660156 131.894531 34.804688 128.699219 33.214844 C 125.507812 31.625 122.199219 30.324219 118.777344 29.320312 C 115.355469 28.3125 111.871094 27.613281 108.328125 27.21875 C 104.78125 26.828125 101.226562 26.746094 97.667969 26.980469 C 82.171875 27.933594 67.195312 34.132812 54.910156 43.515625 C 48.371094 48.367188 42.746094 54.117188 38.039062 60.761719 C 35.640625 64.351562 33.730469 68.183594 32.3125 72.261719 C 30.890625 76.339844 30.007812 80.527344 29.660156 84.832031 C 28.324219 99.15625 32.445312 113.792969 40.390625 125.707031 C 48.339844 137.617188 60.171875 146.949219 74.019531 151.144531 C 77.503906 152.179688 81.050781 152.921875 84.660156 153.375 C 88.265625 153.824219 91.886719 153.976562 95.519531 153.828125 C 99.152344 153.683594 102.75 153.238281 106.308594 152.496094 C 109.871094 151.757812 113.34375 150.730469 116.734375 149.414062 C 123.597656 146.773438 129.804688 143.039062 135.347656 138.207031 C 140.972656 133.117188 145.832031 127.375 149.925781 120.988281 C 158.390625 108.183594 164.414062 93.976562 172.550781 80.972656 C 180.324219 68.53125 190.03125 56.9375 202.050781 48.382812 C 207.976562 44.101562 214.394531 40.753906 221.296875 38.339844 C 225.703125 36.808594 230.226562 35.8125 234.871094 35.351562 C 236.890625 35.171875 238.914062 35.113281 240.945312 35.1875 C 241.925781 35.222656 242.90625 35.28125 243.851562 35.375 C 245.027344 35.492188 245.417969 35.542969 246.488281 35.722656 C 248.34375 36.027344 250.171875 36.449219 251.972656 36.988281 C 252.851562 37.25 253.730469 37.539062 254.597656 37.859375 C 255.003906 38.003906 255.402344 38.160156 255.800781 38.316406 C 256.421875 38.566406 256.273438 38.5 256.871094 38.769531 C 260.171875 40.230469 263.269531 42.042969 266.160156 44.203125 C 269.050781 46.367188 271.667969 48.824219 274.003906 51.574219 C 275.179688 52.914062 276.285156 54.308594 277.316406 55.761719 C 278.40625 57.28125 279.425781 58.851562 280.375 60.464844 C 281.324219 62.078125 282.214844 63.738281 283.042969 65.449219 C 283.949219 67.324219 284.496094 68.660156 285.222656 70.492188 C 286.597656 74.082031 287.691406 77.753906 288.5 81.511719 C 289.308594 85.171875 289.808594 88.878906 289.996094 92.625 C 290.5 100.191406 289.675781 107.613281 287.523438 114.882812 C 286.515625 118.375 285.144531 121.710938 283.40625 124.898438 C 282.511719 126.550781 281.53125 128.152344 280.460938 129.695312 C 280.214844 130.058594 279.972656 130.414062 279.734375 130.765625 L 279.351562 131.289062 C 279.066406 131.664062 279.308594 131.351562 279.015625 131.71875 C 278.441406 132.445312 277.847656 133.171875 277.230469 133.898438 C 274.644531 136.785156 271.75 139.316406 268.542969 141.496094 C 265.339844 143.675781 261.921875 145.4375 258.289062 146.78125 C 248.042969 150.640625 236.96875 151.398438 226.105469 150.480469 C 212.445312 149.328125 198.792969 144.988281 187.648438 136.863281 C 182.332031 133.003906 177.851562 128.339844 174.199219 122.878906 C 172.964844 121.011719 169.941406 122.761719 171.183594 124.636719 C 178.9375 136.265625 190.695312 144.480469 203.757812 149.195312 C 210.207031 151.492188 216.835938 153.019531 223.640625 153.785156 C 230.445312 154.546875 237.246094 154.523438 244.046875 153.714844 C 252.910156 152.65625 261.621094 150.039062 269.195312 145.226562 C 272.484375 143.121094 275.492188 140.667969 278.210938 137.859375 C 280.933594 135.054688 283.292969 131.972656 285.292969 128.613281 C 289.171875 122.023438 291.664062 114.949219 292.769531 107.382812 C 293.941406 99.539062 293.855469 91.707031 292.507812 83.886719 C 291.203125 76.199219 288.757812 68.890625 285.171875 61.96875 C 281.714844 55.175781 277.160156 49.230469 271.503906 44.125 C 268.703125 41.605469 265.65625 39.4375 262.355469 37.617188 C 259.058594 35.800781 255.597656 34.378906 251.972656 33.355469 C 247.980469 32.3125 243.921875 31.757812 239.796875 31.691406 C 235.671875 31.625 231.597656 32.050781 227.574219 32.960938 C 214.117188 35.867188 201.882812 43.136719 191.726562 52.234375 C 180.527344 62.300781 171.765625 74.699219 164.5 87.847656 C 157.234375 100.996094 150.921875 115.101562 141.308594 126.898438 C 136.710938 132.707031 131.273438 137.578125 124.996094 141.515625 C 118.832031 145.234375 112.21875 147.796875 105.160156 149.203125 C 91.21875 152.015625 76.207031 150.066406 63.746094 143.046875 C 60.707031 141.289062 57.835938 139.289062 55.140625 137.042969 C 52.441406 134.796875 49.953125 132.335938 47.675781 129.664062 C 45.398438 126.992188 43.363281 124.148438 41.570312 121.128906 C 39.777344 118.109375 38.253906 114.960938 37 111.679688 C 31.59375 97.652344 31.027344 80.894531 38.132812 67.332031 C 41.917969 60.113281 47.628906 54.03125 53.820312 48.8125 C 59.742188 43.824219 66.242188 39.75 73.3125 36.597656 C 86.878906 30.535156 102.589844 28.355469 117.039062 32.386719 C 129.894531 35.972656 141.632812 44.257812 148.886719 55.519531 C 152.453125 61.003906 154.75 66.980469 155.773438 73.445312 C 155.835938 73.667969 155.941406 73.875 156.085938 74.058594 C 156.230469 74.242188 156.40625 74.390625 156.609375 74.507812 C 156.816406 74.621094 157.035156 74.691406 157.265625 74.71875 C 157.5 74.746094 157.726562 74.726562 157.953125 74.664062 C 158.171875 74.597656 158.371094 74.492188 158.550781 74.347656 C 158.730469 74.207031 158.875 74.035156 158.988281 73.835938 C 159.101562 73.636719 159.171875 73.421875 159.203125 73.195312 C 159.234375 72.96875 159.222656 72.742188 159.167969 72.519531 Z M 159.136719 72.519531 " fill-opacity="1" fill-rule="nonzero"/></g><g fill="#6959cd" fill-opacity="1"><g transform="translate(1.943967, 364.97414)"><g><path d="M 15.96875 0.328125 C 13.15625 0.328125 10.734375 -0.171875 8.703125 -1.171875 C 6.679688 -2.171875 5.128906 -3.566406 4.046875 -5.359375 C 2.972656 -7.160156 2.4375 -9.25 2.4375 -11.625 C 2.4375 -14.789062 3.148438 -17.671875 4.578125 -20.265625 C 6.015625 -22.859375 8.046875 -24.910156 10.671875 -26.421875 C 13.304688 -27.941406 16.351562 -28.703125 19.8125 -28.703125 C 22.164062 -28.703125 24.25 -28.316406 26.0625 -27.546875 C 27.875 -26.773438 29.265625 -25.6875 30.234375 -24.28125 L 27.3125 -21.765625 C 25.613281 -23.984375 23.019531 -25.09375 19.53125 -25.09375 C 16.914062 -25.09375 14.617188 -24.492188 12.640625 -23.296875 C 10.671875 -22.109375 9.148438 -20.507812 8.078125 -18.5 C 7.015625 -16.488281 6.484375 -14.28125 6.484375 -11.875 C 6.484375 -9.25 7.328125 -7.160156 9.015625 -5.609375 C 10.703125 -4.054688 13.113281 -3.28125 16.25 -3.28125 C 19.738281 -3.28125 22.601562 -4.398438 24.84375 -6.640625 L 27.203125 -3.96875 C 25.898438 -2.5625 24.28125 -1.492188 22.34375 -0.765625 C 20.414062 -0.0351562 18.289062 0.328125 15.96875 0.328125 Z M 15.96875 0.328125 "/></g></g></g><g fill="#6959cd" fill-opacity="1"><g transform="translate(53.533955, 364.97414)"><g><path d="M 7.78125 -28.375 L 11.828125 -28.375 L 6.15625 0 L 2.109375 0 Z M 7.78125 -28.375 "/></g></g></g><g fill="#6959cd" fill-opacity="1"><g transform="translate(88.3879, 364.97414)"><g><path d="M 32.1875 -28.375 L 26.5 0 L 23.1875 0 L 10.5 -21.84375 L 6.15625 0 L 2.109375 0 L 7.78125 -28.375 L 11.109375 -28.375 L 23.796875 -6.53125 L 28.125 -28.375 Z M 32.1875 -28.375 "/></g></g></g><g fill="#6959cd" fill-opacity="1"><g transform="translate(143.58445, 364.97414)"><g><path d="M 11.109375 -24.84375 L 9.359375 -16.125 L 23.625 -16.125 L 22.9375 -12.6875 L 8.671875 -12.6875 L 6.84375 -3.53125 L 23.421875 -3.53125 L 22.734375 0 L 2.109375 0 L 7.78125 -28.375 L 27.796875 -28.375 L 27.109375 -24.84375 Z M 11.109375 -24.84375 "/></g></g></g><g fill="#6959cd" fill-opacity="1"><g transform="translate(193.026707, 364.97414)"><g><path d="M 12.6875 -24.84375 L 3 -24.84375 L 3.6875 -28.375 L 27.15625 -28.375 L 26.421875 -24.84375 L 16.734375 -24.84375 L 11.75 0 L 7.734375 0 Z M 12.6875 -24.84375 "/></g></g></g><g fill="#6959cd" fill-opacity="1"><g transform="translate(239.105547, 364.97414)"><g><path d="M 11.109375 -24.84375 L 9.359375 -16.125 L 23.625 -16.125 L 22.9375 -12.6875 L 8.671875 -12.6875 L 6.84375 -3.53125 L 23.421875 -3.53125 L 22.734375 0 L 2.109375 0 L 7.78125 -28.375 L 27.796875 -28.375 L 27.109375 -24.84375 Z M 11.109375 -24.84375 "/></g></g></g><g fill="#6959cd" fill-opacity="1"><g transform="translate(288.547804, 364.97414)"><g><path d="M 15.96875 0.328125 C 13.15625 0.328125 10.734375 -0.171875 8.703125 -1.171875 C 6.679688 -2.171875 5.128906 -3.566406 4.046875 -5.359375 C 2.972656 -7.160156 2.4375 -9.25 2.4375 -11.625 C 2.4375 -14.789062 3.148438 -17.671875 4.578125 -20.265625 C 6.015625 -22.859375 8.046875 -24.910156 10.671875 -26.421875 C 13.304688 -27.941406 16.351562 -28.703125 19.8125 -28.703125 C 22.164062 -28.703125 24.25 -28.316406 26.0625 -27.546875 C 27.875 -26.773438 29.265625 -25.6875 30.234375 -24.28125 L 27.3125 -21.765625 C 25.613281 -23.984375 23.019531 -25.09375 19.53125 -25.09375 C 16.914062 -25.09375 14.617188 -24.492188 12.640625 -23.296875 C 10.671875 -22.109375 9.148438 -20.507812 8.078125 -18.5 C 7.015625 -16.488281 6.484375 -14.28125 6.484375 -11.875 C 6.484375 -9.25 7.328125 -7.160156 9.015625 -5.609375 C 10.703125 -4.054688 13.113281 -3.28125 16.25 -3.28125 C 19.738281 -3.28125 22.601562 -4.398438 24.84375 -6.640625 L 27.203125 -3.96875 C 25.898438 -2.5625 24.28125 -1.492188 22.34375 -0.765625 C 20.414062 -0.0351562 18.289062 0.328125 15.96875 0.328125 Z M 15.96875 0.328125 "/></g></g></g><g fill="#6959cd" fill-opacity="1"><g transform="translate(340.137786, 364.97414)"><g><path d="M 32.1875 -28.375 L 26.5 0 L 22.453125 0 L 24.96875 -12.5625 L 8.671875 -12.5625 L 6.15625 0 L 2.109375 0 L 7.78125 -28.375 L 11.828125 -28.375 L 9.40625 -16.21875 L 25.703125 -16.21875 L 28.125 -28.375 Z M 32.1875 -28.375 "/></g></g></g></svg>