<svg xmlns="http://www.w3.org/2000/svg" xmlns:xlink="http://www.w3.org/1999/xlink" width="400" zoomAndPan="magnify" viewBox="0 0 300 149.999998" height="200" preserveAspectRatio="xMidYMid meet" version="1.0"><defs><clipPath id="2fc579e603"><path d="M 0.164062 42 L 272 42 L 272 106 L 0.164062 106 Z M 0.164062 42 " clip-rule="nonzero"/></clipPath><clipPath id="e2df5df23d"><path d="M 169 10.140625 L 297.914062 10.140625 L 297.914062 138.390625 L 169 138.390625 Z M 169 10.140625 " clip-rule="nonzero"/></clipPath></defs><g clip-path="url(#2fc579e603)"><path fill="#040f55" d="M 0.335938 65.171875 C 0.335938 52.890625 10.34375 42.867188 22.601562 42.867188 L 249.632812 42.867188 C 261.890625 42.867188 271.898438 52.890625 271.898438 65.171875 L 271.898438 83.425781 C 271.898438 95.707031 261.890625 105.730469 249.632812 105.730469 L 22.601562 105.730469 C 10.34375 105.730469 0.335938 95.707031 0.335938 83.425781 Z M 0.335938 65.171875 " fill-opacity="1" fill-rule="evenodd"/></g><path fill="#7b68ee" d="M 180.847656 74.265625 C 180.847656 72.53125 180.933594 70.800781 181.101562 69.074219 C 181.269531 67.347656 181.523438 65.632812 181.863281 63.933594 C 182.199219 62.230469 182.621094 60.550781 183.125 58.890625 C 183.625 57.230469 184.210938 55.597656 184.871094 53.996094 C 185.535156 52.390625 186.273438 50.824219 187.089844 49.296875 C 187.90625 47.765625 188.796875 46.277344 189.757812 44.835938 C 190.722656 43.394531 191.75 42 192.851562 40.660156 C 193.949219 39.320312 195.109375 38.035156 196.335938 36.808594 C 197.558594 35.582031 198.84375 34.417969 200.179688 33.316406 C 201.519531 32.21875 202.910156 31.183594 204.347656 30.222656 C 205.789062 29.257812 207.273438 28.367188 208.800781 27.546875 C 210.328125 26.730469 211.890625 25.988281 213.492188 25.324219 C 215.089844 24.660156 216.71875 24.078125 218.378906 23.574219 C 220.035156 23.070312 221.710938 22.648438 223.410156 22.3125 C 225.109375 21.972656 226.820312 21.71875 228.542969 21.546875 C 230.269531 21.378906 231.996094 21.292969 233.726562 21.292969 C 235.460938 21.292969 237.1875 21.378906 238.910156 21.546875 C 240.632812 21.71875 242.34375 21.972656 244.042969 22.3125 C 245.742188 22.648438 247.421875 23.070312 249.078125 23.574219 C 250.734375 24.078125 252.363281 24.660156 253.964844 25.324219 C 255.566406 25.988281 257.128906 26.730469 258.65625 27.546875 C 260.183594 28.367188 261.667969 29.257812 263.105469 30.222656 C 264.546875 31.183594 265.9375 32.21875 267.273438 33.316406 C 268.613281 34.417969 269.894531 35.582031 271.121094 36.808594 C 272.34375 38.035156 273.507812 39.320312 274.605469 40.660156 C 275.703125 42 276.734375 43.394531 277.695312 44.835938 C 278.660156 46.277344 279.546875 47.765625 280.363281 49.296875 C 281.179688 50.824219 281.921875 52.390625 282.582031 53.996094 C 283.246094 55.597656 283.828125 57.230469 284.332031 58.890625 C 284.835938 60.550781 285.253906 62.230469 285.59375 63.933594 C 285.929688 65.632812 286.183594 67.347656 286.355469 69.074219 C 286.523438 70.800781 286.609375 72.53125 286.609375 74.265625 C 286.609375 76 286.523438 77.730469 286.355469 79.457031 C 286.183594 81.183594 285.929688 82.898438 285.59375 84.601562 C 285.253906 86.300781 284.835938 87.984375 284.332031 89.644531 C 283.828125 91.304688 283.246094 92.933594 282.582031 94.539062 C 281.921875 96.140625 281.179688 97.707031 280.363281 99.238281 C 279.546875 100.769531 278.660156 102.253906 277.695312 103.695312 C 276.734375 105.140625 275.703125 106.53125 274.605469 107.871094 C 273.507812 109.214844 272.34375 110.496094 271.121094 111.722656 C 269.894531 112.949219 268.613281 114.113281 267.273438 115.214844 C 265.9375 116.316406 264.546875 117.347656 263.105469 118.3125 C 261.667969 119.277344 260.183594 120.167969 258.65625 120.984375 C 257.128906 121.800781 255.566406 122.542969 253.964844 123.207031 C 252.363281 123.871094 250.734375 124.453125 249.078125 124.957031 C 247.421875 125.460938 245.742188 125.882812 244.042969 126.222656 C 242.34375 126.558594 240.632812 126.8125 238.910156 126.984375 C 237.1875 127.152344 235.460938 127.238281 233.726562 127.238281 C 231.996094 127.238281 230.269531 127.152344 228.542969 126.984375 C 226.820312 126.8125 225.109375 126.558594 223.410156 126.222656 C 221.710938 125.882812 220.035156 125.460938 218.378906 124.957031 C 216.71875 124.453125 215.089844 123.871094 213.492188 123.207031 C 211.890625 122.542969 210.328125 121.800781 208.800781 120.984375 C 207.273438 120.167969 205.789062 119.277344 204.347656 118.3125 C 202.910156 117.347656 201.519531 116.316406 200.179688 115.214844 C 198.84375 114.113281 197.558594 112.949219 196.335938 111.722656 C 195.109375 110.496094 193.949219 109.214844 192.851562 107.871094 C 191.75 106.53125 190.722656 105.140625 189.757812 103.695312 C 188.796875 102.253906 187.90625 100.769531 187.089844 99.238281 C 186.273438 97.707031 185.535156 96.140625 184.871094 94.539062 C 184.210938 92.933594 183.625 91.304688 183.125 89.644531 C 182.621094 87.984375 182.199219 86.300781 181.863281 84.601562 C 181.523438 82.898438 181.269531 81.183594 181.101562 79.457031 C 180.933594 77.730469 180.847656 76 180.847656 74.265625 Z M 180.847656 74.265625 " fill-opacity="1" fill-rule="nonzero"/><g clip-path="url(#e2df5df23d)"><path fill="#7b68ee" d="M 233.726562 10.140625 C 269.046875 10.140625 297.742188 38.882812 297.742188 74.265625 C 297.742188 109.648438 269.046875 138.390625 233.726562 138.390625 C 198.40625 138.390625 169.714844 109.648438 169.714844 74.265625 C 169.714844 38.882812 198.472656 10.140625 233.726562 10.140625 Z M 233.726562 136.132812 C 267.789062 136.132812 295.488281 108.386719 295.488281 74.265625 C 295.488281 40.144531 267.789062 12.398438 233.726562 12.398438 C 199.667969 12.398438 171.96875 40.144531 171.96875 74.265625 C 171.96875 108.386719 199.667969 136.132812 233.726562 136.132812 Z M 233.726562 136.132812 " fill-opacity="1" fill-rule="nonzero"/></g></svg>