<svg xmlns="http://www.w3.org/2000/svg" xmlns:xlink="http://www.w3.org/1999/xlink" width="300" zoomAndPan="magnify" viewBox="0 0 224.87999 225" height="300" preserveAspectRatio="xMidYMid meet" version="1.0"><defs><clipPath id="02a67429f3"><path d="M 2 18 L 224.761719 18 L 224.761719 223 L 2 223 Z M 2 18 " clip-rule="nonzero"/></clipPath><clipPath id="75099ec9b0"><path d="M 43 0.480469 L 126 0.480469 L 126 95 L 43 95 Z M 43 0.480469 " clip-rule="nonzero"/></clipPath><clipPath id="db34de04bc"><path d="M 84 201 L 109 201 L 109 224.613281 L 84 224.613281 Z M 84 201 " clip-rule="nonzero"/></clipPath></defs><g clip-path="url(#02a67429f3)"><path fill="#fdfdfd" d="M 22.726562 164.199219 C 24.371094 166.40625 27.496094 166.867188 29.714844 165.230469 C 32.171875 163.414062 35.078125 162.453125 38.125 162.453125 C 42.65625 162.453125 46.796875 164.527344 49.492188 168.144531 C 54.136719 174.386719 52.824219 183.234375 46.566406 187.867188 C 44.351562 189.507812 43.886719 192.625 45.535156 194.835938 L 64.9375 220.898438 C 65.914062 222.214844 67.425781 222.910156 68.953125 222.910156 C 69.988281 222.910156 71.03125 222.589844 71.925781 221.929688 L 222.9375 110.15625 C 225.152344 108.515625 225.617188 105.394531 223.96875 103.1875 L 204.566406 77.125 C 203.777344 76.0625 202.597656 75.359375 201.285156 75.164062 C 199.980469 74.976562 198.640625 75.304688 197.574219 76.09375 C 195.121094 77.910156 192.210938 78.871094 189.164062 78.871094 C 184.636719 78.871094 180.492188 76.796875 177.796875 73.179688 C 175.550781 70.152344 174.613281 66.4375 175.167969 62.714844 C 175.71875 58.988281 177.691406 55.703125 180.726562 53.457031 C 181.789062 52.671875 182.496094 51.492188 182.691406 50.1875 C 182.882812 48.878906 182.546875 47.550781 181.757812 46.488281 L 162.351562 20.425781 C 160.707031 18.21875 157.578125 17.753906 155.363281 19.394531 L 4.351562 131.167969 C 3.289062 131.953125 2.578125 133.128906 2.386719 134.4375 C 2.195312 135.746094 2.527344 137.074219 3.320312 138.136719 Z M 120.097656 57.902344 L 121.589844 59.902344 C 122.324219 60.890625 123.453125 61.410156 124.597656 61.410156 C 125.375 61.410156 126.15625 61.171875 126.828125 60.675781 C 128.492188 59.445312 128.835938 57.105469 127.601562 55.449219 L 126.113281 53.449219 L 157.304688 30.359375 L 171.0625 48.835938 C 167.984375 52.296875 165.976562 56.574219 165.28125 61.253906 C 164.339844 67.609375 165.933594 73.953125 169.777344 79.113281 C 174.308594 85.199219 181.554688 88.832031 189.164062 88.832031 C 192.679688 88.832031 196.082031 88.085938 199.214844 86.648438 L 212.96875 105.125 L 181.773438 128.214844 L 180.285156 126.214844 C 179.054688 124.558594 176.710938 124.214844 175.042969 125.441406 C 173.382812 126.671875 173.035156 129.011719 174.269531 130.667969 L 175.757812 132.667969 L 69.980469 210.960938 L 56.222656 192.480469 C 63.609375 184.144531 64.421875 171.488281 57.511719 162.207031 C 52.980469 156.121094 45.734375 152.488281 38.125 152.488281 C 34.609375 152.488281 31.207031 153.234375 28.074219 154.675781 L 14.316406 136.195312 Z M 120.097656 57.902344 " fill-opacity="1" fill-rule="nonzero"/></g><path fill="#fdfdfd" d="M 163.734375 116.511719 C 164.46875 117.5 165.597656 118.023438 166.742188 118.023438 C 167.519531 118.023438 168.300781 117.78125 168.976562 117.285156 C 170.636719 116.054688 170.984375 113.714844 169.75 112.058594 L 159.210938 97.90625 C 157.980469 96.25 155.636719 95.90625 153.96875 97.132812 C 152.308594 98.363281 151.960938 100.703125 153.195312 102.359375 Z M 163.734375 116.511719 " fill-opacity="1" fill-rule="nonzero"/><path fill="#fdfdfd" d="M 142.660156 88.207031 C 143.394531 89.195312 144.527344 89.71875 145.671875 89.71875 C 146.445312 89.71875 147.230469 89.476562 147.902344 88.980469 C 149.5625 87.75 149.910156 85.410156 148.675781 83.753906 L 138.140625 69.601562 C 136.90625 67.945312 134.566406 67.601562 132.898438 68.828125 C 131.234375 70.058594 130.890625 72.398438 132.125 74.054688 Z M 142.660156 88.207031 " fill-opacity="1" fill-rule="nonzero"/><g clip-path="url(#75099ec9b0)"><path fill="#fdfdfd" d="M 45.703125 94.367188 C 46.441406 94.75 47.230469 94.933594 48.007812 94.933594 C 49.8125 94.933594 51.554688 93.957031 52.441406 92.253906 L 72.800781 53.332031 L 74.476562 54.199219 C 75.027344 54.488281 75.621094 54.625 76.203125 54.625 C 77.554688 54.625 78.859375 53.894531 79.53125 52.613281 C 80.484375 50.785156 79.773438 48.527344 77.9375 47.574219 L 76.265625 46.707031 L 94.230469 12.359375 L 114.695312 23 C 113.429688 27.492188 113.503906 32.257812 114.960938 36.804688 C 115.804688 39.421875 118.613281 40.871094 121.242188 40.03125 C 123.871094 39.191406 125.320312 36.390625 124.480469 33.769531 C 123.320312 30.15625 123.648438 26.316406 125.40625 22.953125 C 126.683594 20.515625 125.734375 17.503906 123.289062 16.234375 L 94.421875 1.226562 C 93.246094 0.613281 91.871094 0.492188 90.613281 0.890625 C 89.347656 1.285156 88.292969 2.167969 87.679688 3.335938 L 43.585938 87.648438 C 42.308594 90.085938 43.257812 93.097656 45.703125 94.367188 Z M 45.703125 94.367188 " fill-opacity="1" fill-rule="nonzero"/></g><path fill="#fdfdfd" d="M 2.835938 176.328125 L 31.703125 191.339844 C 32.421875 191.714844 33.214844 191.902344 34.011719 191.902344 C 34.519531 191.902344 35.023438 191.824219 35.511719 191.671875 C 36.777344 191.277344 37.832031 190.394531 38.441406 189.222656 C 40.027344 186.191406 42.660156 183.839844 45.855469 182.605469 C 48.425781 181.613281 49.703125 178.726562 48.703125 176.160156 C 47.707031 173.59375 44.808594 172.324219 42.242188 173.316406 C 38.363281 174.816406 34.96875 177.28125 32.355469 180.441406 L 11.886719 169.796875 L 14.761719 164.296875 C 16.039062 161.859375 15.089844 158.851562 12.640625 157.578125 C 10.195312 156.3125 7.179688 157.257812 5.902344 159.695312 L 0.714844 169.609375 C 0.105469 170.777344 -0.0195312 172.144531 0.378906 173.40625 C 0.777344 174.667969 1.660156 175.71875 2.835938 176.328125 Z M 2.835938 176.328125 " fill-opacity="1" fill-rule="nonzero"/><g clip-path="url(#db34de04bc)"><path fill="#fdfdfd" d="M 99.257812 204.117188 L 94.6875 212.855469 L 92.300781 211.613281 C 89.847656 210.347656 86.835938 211.289062 85.558594 213.726562 C 84.285156 216.167969 85.234375 219.175781 87.679688 220.449219 L 94.496094 223.992188 C 95.214844 224.367188 96.007812 224.554688 96.808594 224.554688 C 97.3125 224.554688 97.816406 224.480469 98.308594 224.328125 C 99.570312 223.929688 100.625 223.050781 101.238281 221.878906 L 108.117188 208.722656 C 109.394531 206.285156 108.445312 203.277344 105.996094 202.003906 C 103.554688 200.730469 100.535156 201.679688 99.257812 204.117188 Z M 99.257812 204.117188 " fill-opacity="1" fill-rule="nonzero"/></g><path fill="#fdfdfd" d="M 89.285156 53.476562 C 87.449219 52.523438 85.191406 53.234375 84.230469 55.066406 C 83.277344 56.898438 83.992188 59.152344 85.828125 60.105469 L 88.617188 61.554688 C 89.171875 61.84375 89.765625 61.980469 90.351562 61.980469 C 91.699219 61.980469 93.007812 61.25 93.675781 59.972656 C 94.632812 58.144531 93.921875 55.886719 92.085938 54.933594 Z M 89.285156 53.476562 " fill-opacity="1" fill-rule="nonzero"/></svg>