<svg xmlns="http://www.w3.org/2000/svg" xmlns:xlink="http://www.w3.org/1999/xlink" width="350" zoomAndPan="magnify" viewBox="0 0 262.5 262.500001" height="350" preserveAspectRatio="xMidYMid meet" version="1.0"><defs><clipPath id="21a048d7ab"><path d="M 9.066406 0 L 236.316406 0 L 236.316406 262 L 9.066406 262 Z M 9.066406 0 " clip-rule="nonzero"/></clipPath></defs><g clip-path="url(#21a048d7ab)"><path fill="#ffffff" d="M 23.792969 256.164062 C 23.792969 256.546875 23.828125 256.929688 23.90625 257.304688 C 23.980469 257.679688 24.089844 258.046875 24.238281 258.398438 C 24.382812 258.753906 24.5625 259.089844 24.777344 259.410156 C 24.988281 259.726562 25.230469 260.023438 25.503906 260.292969 C 25.773438 260.566406 26.070312 260.808594 26.390625 261.019531 C 26.707031 261.234375 27.042969 261.414062 27.398438 261.5625 C 27.753906 261.707031 28.117188 261.816406 28.496094 261.894531 C 28.871094 261.96875 29.25 262.003906 29.632812 262.003906 L 230.488281 262.003906 C 230.875 262.003906 231.253906 261.96875 231.628906 261.894531 C 232.007812 261.816406 232.371094 261.707031 232.726562 261.5625 C 233.082031 261.414062 233.417969 261.234375 233.734375 261.019531 C 234.054688 260.808594 234.351562 260.566406 234.621094 260.292969 C 234.890625 260.023438 235.132812 259.730469 235.347656 259.410156 C 235.5625 259.089844 235.742188 258.753906 235.886719 258.398438 C 236.035156 258.046875 236.144531 257.679688 236.21875 257.304688 C 236.292969 256.929688 236.332031 256.546875 236.332031 256.164062 L 236.332031 106.75 C 236.332031 106.65625 236.28125 106.578125 236.277344 106.484375 C 236.105469 104.925781 235.476562 103.585938 234.386719 102.460938 C 234.316406 102.398438 234.289062 102.308594 234.214844 102.25 C 233.992188 102.109375 233.761719 101.984375 233.519531 101.875 C 232.84375 101.375 232.085938 101.105469 231.246094 101.0625 C 230.996094 100.992188 230.746094 100.941406 230.488281 100.910156 L 70.917969 100.910156 L 141.453125 80.429688 L 141.46875 80.425781 L 223.015625 56.75 C 223.382812 56.640625 223.738281 56.5 224.078125 56.324219 C 224.417969 56.144531 224.738281 55.9375 225.039062 55.699219 C 225.335938 55.457031 225.609375 55.191406 225.855469 54.898438 C 226.101562 54.605469 226.320312 54.289062 226.503906 53.953125 C 226.6875 53.617188 226.835938 53.265625 226.953125 52.902344 C 227.070312 52.535156 227.148438 52.160156 227.1875 51.78125 C 227.230469 51.398438 227.234375 51.019531 227.203125 50.636719 C 227.167969 50.253906 227.101562 49.878906 226.992188 49.511719 L 213.972656 4.707031 C 213.867188 4.335938 213.726562 3.984375 213.550781 3.640625 C 213.375 3.300781 213.167969 2.980469 212.925781 2.679688 C 212.6875 2.378906 212.421875 2.105469 212.128906 1.859375 C 211.835938 1.613281 211.519531 1.394531 211.183594 1.210938 C 210.847656 1.027344 210.496094 0.875 210.128906 0.761719 C 209.761719 0.644531 209.386719 0.566406 209.007812 0.523438 C 208.625 0.484375 208.242188 0.480469 207.859375 0.511719 C 207.476562 0.546875 207.101562 0.617188 206.734375 0.726562 L 13.847656 56.730469 C 13.480469 56.839844 13.125 56.980469 12.785156 57.15625 C 12.445312 57.335938 12.125 57.542969 11.828125 57.785156 C 11.527344 58.023438 11.253906 58.289062 11.007812 58.582031 C 10.761719 58.878906 10.546875 59.191406 10.363281 59.527344 C 10.179688 59.863281 10.027344 60.214844 9.914062 60.578125 C 9.796875 60.945312 9.71875 61.320312 9.675781 61.699219 C 9.632812 62.082031 9.628906 62.460938 9.664062 62.84375 C 9.695312 63.226562 9.765625 63.601562 9.871094 63.96875 L 22.890625 108.769531 C 23.085938 109.425781 23.386719 110.027344 23.792969 110.578125 Z M 96.289062 112.589844 L 71.265625 142.847656 L 45.828125 142.847656 L 70.851562 112.589844 Z M 136.886719 112.589844 L 111.863281 142.847656 L 86.421875 142.847656 L 111.449219 112.589844 Z M 177.484375 112.589844 L 152.457031 142.847656 L 127.019531 142.847656 L 152.046875 112.589844 Z M 218.082031 112.589844 L 193.054688 142.847656 L 167.617188 142.847656 L 192.640625 112.589844 Z M 224.648438 142.847656 L 208.214844 142.847656 L 224.648438 122.976562 Z M 35.476562 213.503906 L 73.453125 213.503906 L 73.453125 227.488281 L 35.476562 227.488281 Z M 35.476562 137.035156 L 35.476562 112.589844 L 55.695312 112.589844 Z M 35.476562 250.324219 L 35.476562 239.167969 L 79.296875 239.167969 C 79.679688 239.167969 80.058594 239.132812 80.4375 239.058594 C 80.8125 238.980469 81.179688 238.871094 81.53125 238.726562 C 81.886719 238.578125 82.222656 238.398438 82.542969 238.183594 C 82.863281 237.972656 83.15625 237.730469 83.429688 237.460938 C 83.699219 237.1875 83.941406 236.894531 84.15625 236.574219 C 84.367188 236.253906 84.546875 235.917969 84.695312 235.5625 C 84.839844 235.210938 84.953125 234.84375 85.027344 234.46875 C 85.101562 234.09375 85.136719 233.710938 85.136719 233.328125 L 85.136719 207.664062 C 85.136719 207.28125 85.101562 206.902344 85.027344 206.523438 C 84.953125 206.148438 84.839844 205.785156 84.695312 205.429688 C 84.546875 205.074219 84.367188 204.738281 84.15625 204.417969 C 83.941406 204.101562 83.699219 203.804688 83.429688 203.535156 C 83.15625 203.261719 82.863281 203.019531 82.542969 202.808594 C 82.222656 202.59375 81.886719 202.414062 81.53125 202.269531 C 81.179688 202.121094 80.8125 202.011719 80.4375 201.9375 C 80.058594 201.863281 79.679688 201.824219 79.296875 201.824219 L 35.476562 201.824219 L 35.476562 154.527344 L 224.648438 154.527344 L 224.648438 250.324219 Z M 107.507812 41.699219 L 92.066406 82.605469 L 62.867188 91.082031 L 78.304688 50.179688 Z M 150.738281 29.148438 L 135.300781 70.050781 L 106.09375 78.535156 L 121.53125 37.628906 Z M 193.96875 16.597656 L 178.527344 57.503906 L 149.324219 65.980469 L 164.765625 25.078125 Z M 214.144531 47.160156 L 192.550781 53.429688 L 205.78125 18.378906 Z M 22.71875 66.320312 L 64.28125 54.25 L 48.84375 95.15625 L 32.480469 99.90625 Z M 22.71875 66.320312 " fill-opacity="1" fill-rule="nonzero"/></g></svg>