<svg xmlns="http://www.w3.org/2000/svg" xmlns:xlink="http://www.w3.org/1999/xlink" width="1024" zoomAndPan="magnify" viewBox="0 0 768 576" height="768" preserveAspectRatio="xMidYMid meet" version="1.0"><defs><clipPath id="013a3d9ecc"><path d="M 256 218.15625 L 328 218.15625 L 328 326 L 256 326 Z M 256 218.15625 " clip-rule="nonzero"/></clipPath><clipPath id="5b8c81fe37"><path d="M 441 218.15625 L 513 218.15625 L 513 326 L 441 326 Z M 441 218.15625 " clip-rule="nonzero"/></clipPath><clipPath id="b298e0648b"><path d="M 255.105469 265 L 513.105469 265 L 513.105469 357.65625 L 255.105469 357.65625 Z M 255.105469 265 " clip-rule="nonzero"/></clipPath></defs><g clip-path="url(#013a3d9ecc)"><path fill="#1a2735" d="M 325.179688 220.796875 C 325.132812 220.542969 325.054688 220.304688 324.945312 220.070312 C 324.832031 219.839844 324.695312 219.625 324.53125 219.429688 C 324.367188 219.234375 324.183594 219.0625 323.972656 218.914062 C 323.765625 218.765625 323.542969 218.644531 323.300781 218.550781 C 323.0625 218.460938 322.816406 218.398438 322.5625 218.371094 C 322.304688 218.339844 322.050781 218.34375 321.796875 218.382812 C 321.542969 218.417969 321.300781 218.484375 321.0625 218.582031 C 320.824219 218.679688 320.605469 218.808594 320.402344 218.960938 L 256.242188 268.402344 L 257.5625 325.664062 L 320.507812 229.898438 L 321.335938 232.648438 C 321.425781 232.960938 321.566406 233.246094 321.753906 233.511719 C 321.9375 233.777344 322.160156 234.003906 322.421875 234.199219 C 322.679688 234.390625 322.964844 234.539062 323.273438 234.640625 C 323.582031 234.742188 323.894531 234.792969 324.21875 234.792969 C 324.441406 234.792969 324.660156 234.769531 324.878906 234.71875 C 325.09375 234.671875 325.304688 234.601562 325.503906 234.507812 C 325.703125 234.414062 325.890625 234.296875 326.066406 234.160156 C 326.242188 234.027344 326.402344 233.871094 326.542969 233.703125 C 326.683594 233.53125 326.804688 233.347656 326.90625 233.152344 C 327.007812 232.953125 327.082031 232.746094 327.140625 232.535156 C 327.195312 232.320312 327.226562 232.101562 327.230469 231.878906 C 327.238281 231.660156 327.222656 231.4375 327.179688 231.222656 Z M 325.179688 220.796875 " fill-opacity="1" fill-rule="nonzero"/></g><g clip-path="url(#5b8c81fe37)"><path fill="#1a2735" d="M 447.839844 218.960938 C 447.636719 218.804688 447.414062 218.679688 447.179688 218.582031 C 446.941406 218.484375 446.695312 218.414062 446.441406 218.378906 C 446.1875 218.34375 445.933594 218.339844 445.679688 218.367188 C 445.425781 218.398438 445.175781 218.457031 444.9375 218.550781 C 444.699219 218.640625 444.472656 218.761719 444.265625 218.910156 C 444.058594 219.058594 443.871094 219.234375 443.707031 219.429688 C 443.542969 219.625 443.40625 219.839844 443.292969 220.070312 C 443.183594 220.300781 443.105469 220.542969 443.058594 220.796875 L 441.058594 231.226562 C 441.019531 231.445312 441 231.664062 441.007812 231.886719 C 441.015625 232.105469 441.046875 232.324219 441.101562 232.539062 C 441.15625 232.753906 441.234375 232.957031 441.332031 233.15625 C 441.433594 233.351562 441.554688 233.539062 441.695312 233.707031 C 441.835938 233.878906 441.996094 234.03125 442.171875 234.167969 C 442.347656 234.304688 442.535156 234.417969 442.734375 234.511719 C 442.9375 234.605469 443.144531 234.679688 443.359375 234.726562 C 443.578125 234.773438 443.796875 234.796875 444.019531 234.796875 C 444.34375 234.796875 444.65625 234.746094 444.964844 234.644531 C 445.273438 234.542969 445.558594 234.398438 445.816406 234.203125 C 446.078125 234.011719 446.300781 233.78125 446.484375 233.515625 C 446.671875 233.253906 446.8125 232.964844 446.902344 232.65625 L 447.730469 229.902344 L 510.679688 325.667969 L 512.203125 268.410156 Z M 447.839844 218.960938 " fill-opacity="1" fill-rule="nonzero"/></g><g clip-path="url(#b298e0648b)"><path fill="#2c3d51" d="M 255.109375 271.800781 L 255.109375 345.539062 C 255.109375 346.332031 255.1875 347.117188 255.339844 347.894531 C 255.496094 348.671875 255.726562 349.429688 256.03125 350.160156 C 256.332031 350.894531 256.707031 351.589844 257.148438 352.246094 C 257.589844 352.90625 258.089844 353.515625 258.652344 354.078125 C 259.214844 354.636719 259.824219 355.136719 260.484375 355.578125 C 261.144531 356.019531 261.84375 356.390625 262.578125 356.695312 C 263.3125 356.996094 264.066406 357.226562 264.847656 357.382812 C 265.625 357.535156 266.414062 357.613281 267.207031 357.613281 L 356.804688 357.613281 C 357.488281 357.613281 358.167969 357.554688 358.84375 357.441406 C 359.519531 357.324219 360.179688 357.152344 360.828125 356.925781 C 361.472656 356.699219 362.097656 356.417969 362.695312 356.085938 C 363.292969 355.753906 363.859375 355.371094 364.390625 354.941406 C 364.925781 354.515625 365.417969 354.042969 365.875 353.53125 C 366.328125 353.019531 366.734375 352.472656 367.09375 351.890625 C 367.453125 351.308594 367.761719 350.703125 368.019531 350.066406 C 368.277344 349.433594 368.480469 348.78125 368.625 348.117188 L 374.0625 323.261719 C 374.191406 322.660156 374.375 322.074219 374.605469 321.503906 C 374.839844 320.933594 375.117188 320.386719 375.441406 319.863281 C 375.765625 319.339844 376.132812 318.847656 376.539062 318.386719 C 376.949219 317.925781 377.394531 317.503906 377.875 317.117188 C 378.355469 316.730469 378.863281 316.390625 379.402344 316.089844 C 379.941406 315.789062 380.503906 315.539062 381.085938 315.332031 C 381.667969 315.128906 382.261719 314.976562 382.867188 314.871094 C 383.476562 314.765625 384.089844 314.714844 384.707031 314.714844 C 385.328125 314.714844 385.945312 314.769531 386.558594 314.875 C 387.171875 314.980469 387.773438 315.136719 388.359375 315.34375 C 388.945312 315.550781 389.511719 315.808594 390.054688 316.113281 C 390.597656 316.417969 391.109375 316.765625 391.589844 317.160156 C 392.074219 317.550781 392.519531 317.980469 392.929688 318.449219 C 393.335938 318.917969 393.703125 319.417969 394.027344 319.949219 C 394.347656 320.480469 394.625 321.035156 394.851562 321.613281 C 395.078125 322.191406 395.253906 322.785156 395.378906 323.394531 L 400.449219 347.984375 C 400.585938 348.660156 400.78125 349.320312 401.035156 349.960938 C 401.289062 350.601562 401.59375 351.21875 401.949219 351.808594 C 402.308594 352.398438 402.714844 352.953125 403.167969 353.472656 C 403.621094 353.996094 404.117188 354.472656 404.652344 354.910156 C 405.1875 355.34375 405.757812 355.730469 406.359375 356.070312 C 406.960938 356.410156 407.589844 356.695312 408.242188 356.925781 C 408.890625 357.15625 409.558594 357.332031 410.238281 357.449219 C 410.921875 357.566406 411.605469 357.625 412.296875 357.625 L 501.007812 357.625 C 501.804688 357.625 502.589844 357.546875 503.371094 357.394531 C 504.148438 357.238281 504.90625 357.007812 505.640625 356.707031 C 506.375 356.402344 507.070312 356.03125 507.730469 355.589844 C 508.390625 355.148438 509.003906 354.648438 509.566406 354.089844 C 510.125 353.527344 510.628906 352.917969 511.070312 352.257812 C 511.511719 351.601562 511.882812 350.902344 512.1875 350.171875 C 512.492188 349.441406 512.71875 348.683594 512.875 347.90625 C 513.03125 347.128906 513.109375 346.34375 513.109375 345.550781 L 513.109375 271.800781 C 513.109375 271.359375 513.066406 270.925781 512.980469 270.496094 C 512.894531 270.066406 512.769531 269.644531 512.601562 269.242188 C 512.429688 268.835938 512.226562 268.449219 511.980469 268.082031 C 511.738281 267.71875 511.457031 267.378906 511.148438 267.070312 C 510.835938 266.757812 510.496094 266.480469 510.132812 266.238281 C 509.765625 265.992188 509.378906 265.789062 508.972656 265.617188 C 508.566406 265.449219 508.148438 265.324219 507.714844 265.238281 C 507.285156 265.152344 506.847656 265.109375 506.40625 265.109375 L 261.808594 265.109375 C 261.367188 265.109375 260.933594 265.152344 260.5 265.238281 C 260.070312 265.324219 259.648438 265.449219 259.242188 265.617188 C 258.835938 265.789062 258.449219 265.992188 258.082031 266.238281 C 257.71875 266.480469 257.378906 266.757812 257.070312 267.070312 C 256.757812 267.378906 256.480469 267.71875 256.234375 268.082031 C 255.992188 268.449219 255.785156 268.835938 255.617188 269.242188 C 255.449219 269.644531 255.320312 270.0625 255.234375 270.496094 C 255.148438 270.925781 255.109375 271.359375 255.109375 271.800781 Z M 255.109375 271.800781 " fill-opacity="1" fill-rule="nonzero"/></g><path fill="#2076b7" d="M 360.003906 279.058594 L 273.269531 279.058594 C 269.289062 279.058594 266.0625 282.347656 266.0625 286.398438 L 266.0625 335.589844 C 266.0625 339.644531 269.289062 342.933594 273.269531 342.933594 L 354.085938 342.933594 C 357.722656 342.933594 360.792969 340.171875 361.234375 336.488281 L 367.15625 287.300781 C 367.683594 282.917969 364.332031 279.058594 360.003906 279.058594 Z M 360.003906 279.058594 " fill-opacity="1" fill-rule="nonzero"/><path fill="#c4264a" d="M 495.644531 279.058594 L 409.421875 279.058594 C 405.117188 279.058594 401.785156 282.917969 402.304688 287.292969 L 408.191406 336.480469 C 408.628906 340.164062 411.679688 342.925781 415.304688 342.925781 L 495.644531 342.925781 C 499.597656 342.925781 502.808594 339.636719 502.808594 335.582031 L 502.808594 286.398438 C 502.808594 282.347656 499.597656 279.058594 495.644531 279.058594 Z M 495.644531 279.058594 " fill-opacity="1" fill-rule="nonzero"/><path fill="#e9ddd0" d="M 272.199219 292.949219 C 273.429688 291.03125 274.773438 289.195312 276.230469 287.441406 C 276.640625 286.945312 277.0625 286.457031 277.496094 285.972656 C 277.667969 285.78125 277.382812 285.496094 277.210938 285.6875 C 275.675781 287.40625 274.253906 289.214844 272.941406 291.105469 C 272.570312 291.644531 272.207031 292.191406 271.851562 292.746094 C 271.710938 292.964844 272.058594 293.167969 272.199219 292.949219 Z M 272.199219 292.949219 " fill-opacity="1" fill-rule="nonzero"/><path fill="#e9ddd0" d="M 287.285156 282.65625 C 284.980469 285.667969 282.632812 288.652344 280.246094 291.609375 C 277.859375 294.5625 275.429688 297.492188 272.960938 300.394531 C 271.578125 302.019531 270.179688 303.632812 268.773438 305.238281 C 268.605469 305.433594 268.886719 305.71875 269.058594 305.523438 C 271.574219 302.65625 274.050781 299.753906 276.492188 296.820312 C 278.929688 293.890625 281.332031 290.925781 283.691406 287.929688 C 285.019531 286.25 286.332031 284.558594 287.632812 282.859375 C 287.792969 282.652344 287.441406 282.453125 287.285156 282.65625 Z M 287.285156 282.65625 " fill-opacity="1" fill-rule="nonzero"/><path fill="#e9ddd0" d="M 356.519531 325.832031 C 355.238281 328.03125 353.875 330.179688 352.4375 332.277344 C 352.023438 332.875 351.605469 333.472656 351.183594 334.0625 C 351.03125 334.273438 351.378906 334.476562 351.53125 334.265625 C 353.015625 332.195312 354.421875 330.074219 355.746094 327.902344 C 356.128906 327.28125 356.503906 326.65625 356.867188 326.03125 C 356.910156 325.921875 356.878906 325.839844 356.78125 325.78125 C 356.679688 325.726562 356.59375 325.742188 356.519531 325.832031 Z M 356.519531 325.832031 " fill-opacity="1" fill-rule="nonzero"/><path fill="#e9ddd0" d="M 358.542969 314.699219 C 356.335938 317.832031 354.101562 320.945312 351.839844 324.035156 C 349.582031 327.128906 347.285156 330.210938 344.957031 333.28125 C 343.648438 335 342.335938 336.714844 341.011719 338.425781 C 340.921875 338.519531 340.921875 338.613281 341.011719 338.710938 C 341.105469 338.804688 341.199219 338.804688 341.296875 338.710938 C 343.652344 335.667969 345.984375 332.605469 348.289062 329.519531 C 350.589844 326.4375 352.871094 323.328125 355.121094 320.199219 C 356.386719 318.4375 357.640625 316.671875 358.890625 314.898438 C 359.039062 314.691406 358.6875 314.488281 358.542969 314.699219 Z M 358.542969 314.699219 " fill-opacity="1" fill-rule="nonzero"/><path fill="#e9ddd0" d="M 412.4375 284.539062 L 408.308594 290.914062 C 408.167969 291.132812 408.519531 291.332031 408.65625 291.117188 L 412.78125 284.746094 C 412.925781 284.527344 412.578125 284.324219 412.4375 284.539062 Z M 412.4375 284.539062 " fill-opacity="1" fill-rule="nonzero"/><path fill="#e9ddd0" d="M 420.863281 283.914062 L 412.105469 297.75 L 409.632812 301.664062 C 409.492188 301.886719 409.839844 302.085938 409.980469 301.871094 L 414.359375 294.949219 L 418.734375 288.03125 L 421.214844 284.113281 C 421.351562 283.890625 421.003906 283.691406 420.863281 283.914062 Z M 420.863281 283.914062 " fill-opacity="1" fill-rule="nonzero"/><path fill="#e9ddd0" d="M 498.335938 319.296875 C 498.453125 319.066406 498.105469 318.863281 497.984375 319.09375 C 496.722656 321.507812 495.460938 323.917969 494.199219 326.328125 L 490.425781 333.535156 L 488.300781 337.597656 C 488.179688 337.828125 488.527344 338.03125 488.648438 337.800781 C 489.910156 335.390625 491.175781 332.976562 492.4375 330.570312 L 496.207031 323.359375 Z M 498.335938 319.296875 " fill-opacity="1" fill-rule="nonzero"/><path fill="#e9ddd0" d="M 499.132812 329.535156 C 498.097656 331.289062 496.996094 332.996094 495.824219 334.664062 C 495.675781 334.875 496.023438 335.078125 496.175781 334.867188 C 497.34375 333.199219 498.445312 331.492188 499.480469 329.738281 C 499.53125 329.625 499.503906 329.539062 499.398438 329.476562 C 499.292969 329.417969 499.203125 329.4375 499.132812 329.535156 Z M 499.132812 329.535156 " fill-opacity="1" fill-rule="nonzero"/></svg>