<svg xmlns="http://www.w3.org/2000/svg" xmlns:xlink="http://www.w3.org/1999/xlink" width="300" zoomAndPan="magnify" viewBox="0 0 224.87999 225" height="300" preserveAspectRatio="xMidYMid meet" version="1.0"><defs><clipPath id="e25952372c"><path d="M 11.242188 11.304688 L 213.636719 11.304688 L 213.636719 213.695312 L 11.242188 213.695312 Z M 11.242188 11.304688 " clip-rule="nonzero"/></clipPath><clipPath id="e1e866b363"><path d="M 53 63 L 212 63 L 212 213.695312 L 53 213.695312 Z M 53 63 " clip-rule="nonzero"/></clipPath></defs><g clip-path="url(#e25952372c)"><path fill="#9797d4" d="M 112.441406 11.304688 C 168.328125 11.304688 213.636719 56.609375 213.636719 112.5 C 213.636719 168.390625 168.328125 213.695312 112.441406 213.695312 C 56.550781 213.695312 11.242188 168.390625 11.242188 112.5 C 11.242188 56.609375 56.550781 11.304688 112.441406 11.304688 " fill-opacity="1" fill-rule="nonzero"/></g><g clip-path="url(#e1e866b363)"><path fill="#666cbd" d="M 211.816406 131.664062 L 143.941406 63.859375 L 123.09375 74.28125 L 144.464844 95.632812 L 150.890625 112.5 L 150.40625 112.5 L 101.785156 63.859375 L 78.445312 79.296875 L 53.144531 161.140625 L 105.457031 213.453125 C 107.765625 213.609375 110.09375 213.695312 112.441406 213.695312 C 161.777344 213.695312 202.859375 178.386719 211.816406 131.664062 " fill-opacity="1" fill-rule="nonzero"/></g><path fill="#a8b5e2" d="M 143.941406 63.859375 L 123.09375 63.859375 L 123.09375 74.28125 L 136.992188 76.019531 L 153.703125 119.878906 L 171.734375 112.5 L 143.941406 63.859375 " fill-opacity="1" fill-rule="nonzero"/><path fill="#c6ccec" d="M 53.148438 112.5 L 80.941406 63.859375 L 101.785156 63.859375 L 101.785156 74.28125 L 87.886719 76.019531 L 71.800781 118.242188 L 53.148438 112.5 " fill-opacity="1" fill-rule="nonzero"/><path fill="#e2e5f1" d="M 53.144531 112.5 L 53.144531 161.140625 L 100.1875 161.140625 L 112.441406 143.074219 L 124.691406 161.140625 L 171.734375 161.140625 L 171.734375 112.5 L 53.144531 112.5 " fill-opacity="1" fill-rule="nonzero"/><path fill="#c6ccec" d="M 171.734375 112.5 L 171.734375 161.140625 L 124.691406 161.140625 L 112.441406 143.074219 L 112.441406 112.5 L 171.734375 112.5 " fill-opacity="1" fill-rule="nonzero"/><path fill="#20b0ec" d="M 92.734375 147.242188 L 67.042969 147.242188 L 67.042969 126.398438 L 101.785156 126.398438 L 101.785156 133.664062 L 92.734375 147.242188 " fill-opacity="1" fill-rule="nonzero"/><path fill="#d93127" d="M 157.835938 147.242188 L 132.144531 147.242188 L 123.09375 133.664062 L 123.09375 126.398438 L 157.835938 126.398438 L 157.835938 147.242188 " fill-opacity="1" fill-rule="nonzero"/></svg>